<svg width="333" height="190" viewBox="0 0 333 190" fill="none" xmlns="http://www.w3.org/2000/svg">
<rect width="333" height="190" rx="5" fill="#FFFFF2"/>
<path d="M238.347 162.992C279.038 162.992 312.025 161.066 312.025 158.689C312.025 156.313 279.038 154.387 238.347 154.387C197.656 154.387 164.669 156.313 164.669 158.689C164.669 161.066 197.656 162.992 238.347 162.992Z" fill="#F5F5F5"/>
<path d="M302.592 157.117L294.346 90.938H292.342L300.587 157.117H294.996L295.239 159.067H308.425L308.182 157.117H302.592Z" fill="#263238"/>
<path opacity="0.4" d="M302.592 157.117L294.346 90.938H292.342L300.587 157.117H294.996L295.239 159.067H308.425L308.182 157.117H302.592Z" fill="#FAFAFA"/>
<path d="M301.279 58.5933H281.478L269.18 158.944H288.98L301.279 58.5933Z" fill="#263238"/>
<path opacity="0.6" d="M301.279 58.5933H281.478L269.18 158.944H288.98L301.279 58.5933Z" fill="#FAFAFA"/>
<path d="M289.733 127.092C288.658 134.596 288.823 141.882 289.263 147.331L294.932 101.076C294.48 102.97 294.012 104.947 293.553 106.92C293.637 110.563 293.293 118.329 289.733 127.092Z" fill="#263238"/>
<path d="M289.733 127.092C293.292 118.329 293.637 110.563 293.553 106.919C292.671 110.7 291.818 114.464 291.156 117.593C291.236 118.07 291.318 118.55 291.405 119.037C290.656 121.7 290.115 124.41 289.733 127.092Z" fill="#263238"/>
<path d="M288.728 61.952C288.743 61.094 289.051 60.5946 289.051 60.5946C288.811 62.2351 290.093 63.8429 292.007 64.1678C292.3 64.2176 292.677 64.2563 293.104 64.2871C293.059 63.9215 293 63.556 292.929 63.1999C292.771 62.389 292.56 61.6237 292.368 61.0214L292.451 61.0727C292.133 60.7865 291.889 60.3199 291.837 59.729H288.604C288.355 61.2938 288.728 61.952 288.728 61.952Z" fill="#263238"/>
<path d="M288.144 59.9117C288.147 59.9121 288.15 59.9121 288.153 59.9121C288.201 59.9121 288.247 59.8752 288.258 59.8262C288.265 59.7924 288.273 59.762 288.28 59.7285H288.089C288.083 59.7559 288.076 59.781 288.071 59.8087C288.059 59.8608 288.092 59.9067 288.144 59.9117Z" fill="#263238"/>
<path d="M289.903 67.627C289.624 67.7334 289.347 67.8474 289.075 67.9671C289.555 68.0336 289.959 68.246 290.418 68.5587C290.136 67.8785 289.905 67.6296 289.903 67.627Z" fill="#FFB573"/>
<path d="M289.94 67.6126L290.422 67.437C290.261 67.4933 290.101 67.5518 289.94 67.6126Z" fill="#FFB573"/>
<path d="M297.183 67.0712C297.461 67.3664 297.844 67.6412 298.374 67.8901C298.374 67.8901 298.793 69.2767 296.253 69.8794C293.107 70.6219 292.487 68.1705 292.487 68.1705C292.807 67.7905 292.995 67.2847 293.097 66.7144C292.323 66.8557 291.396 67.0989 290.459 67.4238C290.792 67.9687 291.064 68.5718 291.288 69.1885C292.338 69.9539 293.839 70.9692 296.64 71.934C296.748 71.9713 296.838 72.0142 296.919 72.0602C297.438 72.1278 297.95 72.1639 298.476 72.1586L298.94 68.37C298.76 67.811 298.582 67.5504 298.582 67.5504C298.119 67.3725 297.647 67.2103 297.183 67.0712Z" fill="#FFB573"/>
<path d="M287.533 88.9565C287.176 89.479 286.655 90.3401 286.086 91.6029C285.978 93.0708 285.863 94.5425 285.734 96.0135L285.733 96.02C285.726 96.1024 285.707 96.1826 285.683 96.2605L285.705 99.3047L284.48 101.756L283.39 101.449C282.66 106.323 282.369 112.772 283.146 121.155C278.923 131.688 282.233 150.751 283.136 155.393H286.199C286.221 155.393 286.242 155.399 286.264 155.401C285.8 147.968 288.576 130.376 290.716 119.726C290.85 119.057 290.998 118.343 291.157 117.593C291.818 114.464 292.672 110.701 293.553 106.92C294.013 104.947 294.48 102.97 294.932 101.076L296.397 89.1249C293.646 89.2564 290.197 89.172 287.533 88.9565Z" fill="#263238"/>
<path d="M286.743 155.685C286.641 155.517 286.462 155.42 286.264 155.401C286.242 155.399 286.221 155.393 286.199 155.393H283.136H283.129C282.821 155.393 282.541 155.602 282.444 155.898C282.277 156.412 282.115 156.829 281.997 157.186C281.925 157.404 281.869 157.613 281.831 157.808H287.979L288.088 156.922C287.508 156.615 287.051 156.19 286.743 155.685Z" fill="#00A89F"/>
<path d="M296.253 69.8797C298.793 69.2774 298.374 67.8904 298.374 67.8904C297.845 67.6415 297.461 67.3667 297.183 67.0715C296.84 66.7063 296.662 66.3088 296.584 65.8878C295.24 65.762 293.962 64.9685 293.237 63.4903C292.838 62.6764 292.659 61.9669 292.638 61.2119C292.618 61.2001 292.597 61.1902 292.577 61.1758C292.534 61.145 292.493 61.1096 292.452 61.0728L292.369 61.0215C292.561 61.6238 292.772 62.3895 292.93 63.2C293.001 63.5561 293.06 63.9216 293.105 64.2872C293.194 65.0069 293.225 65.7266 293.153 66.3749C293.14 66.492 293.118 66.6025 293.098 66.7146C292.996 67.285 292.808 67.7908 292.488 68.1708C292.488 68.1708 293.107 70.6222 296.253 69.8797Z" fill="#FFB573"/>
<path d="M290.417 68.5588C290.681 68.7385 290.963 68.9517 291.288 69.1884C291.064 68.5717 290.792 67.9686 290.459 67.4237V67.4233L290.423 67.4366L289.941 67.6122L289.902 67.6263L289.903 67.6266C289.905 67.6293 290.136 67.8782 290.417 68.5588Z" fill="#263238"/>
<path d="M298.582 67.5508C298.582 67.5508 298.761 67.8115 298.94 68.3704L299.029 67.6492L298.582 67.5508Z" fill="#263238"/>
<path d="M296.918 72.0605C299.155 73.3506 290.843 78.0136 289.238 78.63C289.237 78.6304 289.236 78.6307 289.236 78.6307C288.894 79.3657 288.443 80.21 287.86 81.0681C287.273 85.5505 285.979 88.608 287.253 88.9337C287.345 88.9417 287.439 88.9489 287.532 88.9565C290.196 89.1719 293.645 89.2563 296.396 89.1244L298.475 72.1586C297.949 72.1643 297.438 72.1286 296.918 72.0605Z" fill="#00A89F"/>
<path d="M287.861 81.0677C288.444 80.2097 288.895 79.3653 289.237 78.6304C288.833 78.785 288.445 78.8698 288.071 78.9032C288.028 79.6552 287.954 80.3772 287.861 81.0677Z" fill="#00A89F"/>
<path d="M294.038 59.9572C293.893 60.8509 293.239 61.5649 292.638 61.2115C292.659 61.9666 292.838 62.6761 293.237 63.49C293.962 64.9682 295.24 65.7613 296.584 65.8874C297.526 65.9756 298.496 65.732 299.334 65.1559L299.728 61.9434C299.673 61.9191 299.64 61.9001 299.64 61.9001L299.796 61.3928L300 59.728H294.067C294.059 59.8067 294.05 59.8838 294.038 59.9572ZM296.783 61.1713C296.826 61.1557 296.87 61.1789 296.881 61.2233C296.884 61.2332 297.156 62.2334 298.299 62.5328C298.343 62.5446 298.365 62.5898 298.351 62.635C298.337 62.6806 298.291 62.7084 298.249 62.6973C298.092 62.6563 297.951 62.6031 297.824 62.5419C296.954 62.1232 296.735 61.3179 296.725 61.2788C296.714 61.2351 296.74 61.1865 296.783 61.1713Z" fill="#FFB573"/>
<path d="M299.727 61.9442L299.795 61.3936L299.64 61.9009C299.64 61.9009 299.673 61.9195 299.727 61.9442Z" fill="#ED893E"/>
<path d="M297.824 62.542C297.951 62.6032 298.092 62.656 298.249 62.6974C298.291 62.7085 298.337 62.6807 298.351 62.6351C298.364 62.5899 298.343 62.5447 298.299 62.5329C297.156 62.2335 296.884 61.2333 296.881 61.2234C296.87 61.179 296.826 61.1558 296.783 61.1714C296.74 61.1869 296.714 61.2352 296.725 61.2793C296.735 61.318 296.954 62.1233 297.824 62.542Z" fill="#263238"/>
<path d="M292.451 61.0721C292.492 61.1089 292.533 61.1447 292.576 61.1751C292.597 61.1895 292.617 61.1994 292.637 61.2112C293.239 61.5649 293.892 60.8505 294.038 59.9568C294.05 59.8834 294.059 59.8063 294.066 59.728H291.837C291.889 60.3193 292.133 60.7859 292.451 61.0721Z" fill="#FFB573"/>
<path d="M283.99 95.419L285.679 95.655L285.684 96.2603C285.709 96.1824 285.727 96.1026 285.734 96.0198L285.735 96.0133C285.864 94.542 285.979 93.0706 286.087 91.6026C286.135 90.9677 286.183 90.3312 286.226 89.6988C286.306 88.6512 286.372 87.6054 286.464 86.568C286.544 85.5363 286.639 84.4917 286.77 83.5197L286.881 82.8277C286.936 82.5966 286.971 82.388 287.039 82.1399C287.156 81.6626 287.298 81.1656 287.436 80.6655C287.598 80.0867 287.775 79.5015 287.956 78.9144C286.333 79.0129 285.026 78.0952 284.184 77.2588C283.93 78.2152 283.693 79.1751 283.478 80.1574C283.356 80.7054 283.248 81.2571 283.153 81.8328C283.101 82.1102 283.066 82.4306 283.024 82.7262C282.992 83.0249 282.968 83.3247 282.945 83.6177C282.832 85.8692 282.916 87.9486 283.028 90.0602C283.134 91.988 283.307 93.8944 283.537 95.7982C283.673 95.6645 283.819 95.5353 283.99 95.419Z" fill="#FFB573"/>
<path d="M285.705 99.3044L285.682 96.2603L285.678 95.6549L283.989 95.4189C283.818 95.5352 283.671 95.664 283.536 95.7978C282.18 97.135 282.492 99.2026 282.492 99.2026L285.705 99.3044Z" fill="#FFB573"/>
<path d="M285.706 99.3046L282.493 99.2031L282.174 101.107L283.39 101.449L284.48 101.756L285.706 99.3046Z" fill="#FFB573"/>
<path d="M287.955 78.9143C287.993 78.912 288.032 78.9067 288.071 78.9033C288.444 78.8698 288.832 78.7851 289.236 78.6304C289.237 78.6301 289.238 78.6297 289.239 78.6297C290.843 78.0133 299.156 73.3504 296.919 72.0603C296.839 72.0139 296.748 71.9713 296.64 71.9341C293.84 70.9693 292.339 69.9539 291.288 69.1886C290.963 68.9518 290.68 68.7387 290.417 68.5589C289.958 68.2462 289.554 68.0334 289.074 67.9673C288.85 67.9361 288.609 67.9365 288.338 67.9741C284.664 68.4867 283.133 75.9739 283.133 75.9739C283.133 75.9739 283.51 76.5902 284.183 77.259C285.025 78.095 286.331 79.0131 287.955 78.9143Z" fill="#00A89F"/>
<path opacity="0.2" d="M289.733 127.092C293.292 118.329 293.637 110.563 293.553 106.919C292.671 110.7 291.818 114.464 291.156 117.593C291.236 118.07 291.318 118.55 291.405 119.037C290.656 121.7 290.115 124.41 289.733 127.092Z" fill="black"/>
<path opacity="0.2" d="M287.861 81.0677C288.444 80.2097 288.895 79.3653 289.237 78.6304C288.833 78.785 288.445 78.8698 288.071 78.9032C288.028 79.6552 287.954 80.3772 287.861 81.0677Z" fill="black"/>
<path opacity="0.5" d="M299.999 59.7285L287.979 157.808H270.457L282.477 59.7285H299.999Z" fill="white"/>
<path opacity="0.5" d="M288.999 59.7285L279.703 82.3712L281.833 64.9915L283.994 59.7285H288.999Z" fill="white"/>
<path opacity="0.5" d="M292.487 59.7285L278.219 94.4803L279.134 87.0125L290.336 59.7285H292.487Z" fill="white"/>
<path opacity="0.5" d="M295.157 99.2393L294.242 106.707L273.262 157.808H271.111L295.157 99.2393Z" fill="white"/>
<path opacity="0.5" d="M295.755 59.7285L276.829 105.821L277.174 103.006L294.942 59.7285H295.755Z" fill="white"/>
<path d="M267.244 70.23C267.604 72.328 267.923 74.4324 268.203 76.5425C268.35 77.5967 268.479 78.6538 268.612 79.7102L268.801 81.2963L268.893 82.0898C268.924 82.3516 268.959 82.5579 268.991 82.7954C269.154 83.7584 269.37 84.7882 269.601 85.8035C269.823 86.8257 270.072 87.8525 270.308 88.883C270.797 90.94 271.27 93.019 271.723 95.0968L271.724 95.1029C271.85 95.6782 271.485 96.2463 270.909 96.3713C270.408 96.4804 269.912 96.217 269.71 95.7667C268.826 93.801 268.011 91.8204 267.266 89.8023C266.521 87.7727 265.812 85.7731 265.25 83.5608L265.064 82.6951L264.909 81.9108L264.605 80.3414C264.409 79.2941 264.209 78.2476 264.026 77.198C263.648 75.1012 263.309 72.9983 263.012 70.8889C262.846 69.7177 263.662 68.6344 264.833 68.4691C265.982 68.3068 267.046 69.0885 267.242 70.2235L267.244 70.23Z" fill="#FFB573"/>
<path d="M269.02 74.5626L268.321 75.6836L267.169 77.538L265.626 73.0463L263.825 67.8062C267.99 68.3268 267.918 71.2908 269.02 74.5626Z" fill="#00A89F"/>
<path opacity="0.2" d="M268.321 75.6833L267.17 77.5377L265.627 73.0461C265.703 72.8561 265.783 72.6661 265.874 72.4761C265.874 72.4761 267.375 73.0841 268.321 75.6833Z" fill="black"/>
<path d="M267.892 119.569C267.679 130.65 266.197 153.807 267.212 156.418C267.117 156.977 265.141 156.916 264.647 156.528C264.647 156.528 260.007 142.202 260.322 126.998C260.375 124.308 260.584 121.591 261.006 118.92C260.467 117.126 259.992 115.397 259.574 113.74C255.477 97.5369 256.746 88.0483 256.746 88.0483L266.919 88.0597C269.343 96.7845 269.203 107.858 267.892 119.569Z" fill="#263238"/>
<path opacity="0.2" d="M260.322 126.999C260.375 124.308 260.584 121.591 261.006 118.92C260.466 117.126 259.991 115.397 259.573 113.74C260.481 108.626 261.272 104.563 261.272 104.563C261.272 104.563 263.765 114.823 260.322 126.999Z" fill="black"/>
<path d="M261.387 52.3507C261.387 52.3507 260.379 49.2495 255.495 50.4568C250.912 51.5899 249.085 55.2429 248.931 58.1799C248.681 62.9724 253.426 63.9232 253.426 63.9232C253.426 63.9232 258.891 64.0505 260.845 63.7248C262.798 63.3988 264.277 61.7865 264.239 60.1411C264.239 60.1411 264.486 60.6419 264.396 61.5026C264.396 61.5026 265.28 60.233 264.432 56.9897C263.193 52.2564 261.387 52.3507 261.387 52.3507Z" fill="#263238"/>
<path d="M251.14 53.1719C251.14 53.1719 246.145 58.6291 251.322 63.5349C251.322 63.5349 247.324 58.927 251.14 53.1719Z" fill="#263238"/>
<path d="M254.934 50.8237C249.508 52.9996 247.191 57.3423 249.08 61.5181" stroke="#263238" stroke-width="0.19" stroke-miterlimit="10" stroke-linecap="round" stroke-linejoin="round"/>
<path d="M265.221 59.3622C264.523 51.9898 261.173 52.4515 261.173 52.4515" stroke="#263238" stroke-width="0.19" stroke-miterlimit="10" stroke-linecap="round" stroke-linejoin="round"/>
<path d="M249.356 70.2853C250.076 68.0977 255.257 66.3975 257.371 66.3067C260.017 66.1931 265.494 68.5358 266.477 69.8476C267.462 71.1593 259.269 78.7855 256.627 78.6487C253.986 78.5119 252.167 77.0356 250.878 75.0847C249.591 73.1342 249.356 70.2853 249.356 70.2853Z" fill="#FFB573"/>
<path d="M271.561 94.7603L272.679 98.2775L269.488 98.7518C269.488 98.7518 268.36 96.403 269.828 94.8336L271.561 94.7603Z" fill="#FFB573"/>
<path d="M272.208 100.862L269.744 100.646L269.488 98.7521L272.68 98.2778L272.208 100.862Z" fill="#FFB573"/>
<path d="M263.926 87.6733C263.926 87.6733 261.22 109.137 260.401 119.61C259.542 130.61 258.91 148.996 260.45 156.032C259.896 156.463 258.791 156.646 257.531 156.426C257.531 156.426 249.651 133.132 253.007 121.044C247.62 95.9429 253.855 88.1073 253.855 88.1073L263.926 87.6733Z" fill="#263238"/>
<path d="M263.445 158.944C260.821 158.944 261.008 158.904 259.529 158.854C258.264 158.809 257.973 158.967 256.957 158.944C256.108 158.926 256.081 158.115 256.274 157.181C256.348 156.823 256.459 156.405 256.563 155.889C256.623 155.592 256.877 155.383 257.186 155.383H260.256C260.479 155.383 260.7 155.489 260.836 155.676C261.482 156.56 262.538 157.21 263.886 157.389C265.311 157.578 264.491 158.944 263.445 158.944Z" fill="#00A89F"/>
<path d="M255.688 62.9189C256.026 63.9791 256.288 65.1229 256.3 66.1033C256.307 66.8177 256.182 67.4485 255.855 67.9045C255.855 67.9045 256.775 70.3631 259.83 69.6183C262.296 69.0141 261.707 67.6233 261.707 67.6233C259.378 66.5859 259.476 65.1077 259.514 63.5079C259.518 63.4813 259.518 63.4585 259.518 63.4319L257.527 62.2767L254.859 60.7339C255.125 61.3381 255.429 62.1057 255.688 62.9189Z" fill="#FFB573"/>
<path d="M270.289 158.944C267.665 158.944 267.852 158.904 266.374 158.854C265.108 158.809 264.818 158.967 263.802 158.944C262.953 158.926 262.925 158.115 263.119 157.181C263.192 156.823 263.304 156.405 263.408 155.889C263.468 155.592 263.722 155.383 264.031 155.383H267.1C267.323 155.383 267.544 155.489 267.681 155.676C268.327 156.56 269.382 157.21 270.731 157.389C272.155 157.578 271.335 158.944 270.289 158.944Z" fill="#00A89F"/>
<path d="M253.203 67.3591C253.203 67.3591 254.734 68.8034 255.563 74.3815L256.435 74.1934C256.435 74.1934 255.761 69.9271 253.736 67.1558L253.203 67.3591Z" fill="#263238"/>
<path d="M261.873 67.2832C261.873 67.2832 263.628 69.4025 262.991 74.9497L263.642 75.0493C263.642 75.0493 263.893 69.3325 262.417 67.4002L261.873 67.2832Z" fill="#263238"/>
<path d="M266.638 88.216C265.228 89.1242 257.879 89.1318 253.167 88.729C251.852 88.4022 252.772 85.3356 252.81 80.8402C252.821 79.9092 252.791 78.9212 252.692 77.88C252.559 76.3828 252.285 74.783 251.795 73.1148C261.55 71.4732 262.948 69.197 263.826 67.8062C265.73 68.4484 267.12 69.0678 267.531 71.4086C267.755 72.7006 267.755 74.3688 267.702 77.5C267.706 80.1486 268.488 87.6612 266.638 88.216Z" fill="#00A89F"/>
<path opacity="0.2" d="M252.809 80.8401C252.821 79.9091 252.79 78.9211 252.691 77.8799C253.733 76.8159 254.481 76.0825 254.481 76.0825C254.481 76.0825 254.154 78.4157 252.809 80.8401Z" fill="black"/>
<path d="M257.452 81.9379L260.844 80.4829L261.626 83.6134C261.626 83.6134 259.398 84.9635 257.693 83.6548L257.452 81.9379Z" fill="#FFB573"/>
<path d="M263.463 80.7018L263.487 83.1748L261.627 83.6137L260.845 80.4829L263.463 80.7018Z" fill="#FFB573"/>
<path d="M253.284 71.7382C252.854 73.4368 252.432 75.2388 252.039 77.0008C251.644 78.7728 251.273 80.5512 250.944 82.3341L250.822 83.0029L250.792 83.1701L250.778 83.2427C250.778 83.2393 250.778 83.2355 250.776 83.2317C250.77 83.2188 250.77 83.1644 250.749 83.0888C250.721 82.9254 250.545 82.6431 250.399 82.5636C250.27 82.4762 250.235 82.5089 250.301 82.5355C250.428 82.6016 250.776 82.6541 251.137 82.6651C251.505 82.6826 251.915 82.6659 252.332 82.6324C254.011 82.4911 255.833 82.1453 257.588 81.7919L257.631 81.7835C258.209 81.6672 258.772 82.0415 258.888 82.6195C258.984 83.0991 258.742 83.5684 258.327 83.7808C256.59 84.6685 254.846 85.3946 252.869 85.8848C252.371 86.0004 251.86 86.1022 251.301 86.1626C250.738 86.2132 250.148 86.2489 249.374 86.0878C248.991 86.0015 248.521 85.8484 248.026 85.4741C247.778 85.2791 247.539 85.0241 247.352 84.7205C247.17 84.4173 247.047 84.0844 246.986 83.7758C246.927 83.4718 246.915 83.1842 246.93 82.9402L246.943 82.7563L246.953 82.6564L246.971 82.4793L247.043 81.771C247.238 79.8824 247.523 78.009 247.865 76.147C248.218 74.2766 248.621 72.461 249.162 70.5803C249.488 69.4438 250.675 68.7871 251.811 69.1135C252.925 69.4335 253.578 70.5792 253.297 71.6945L253.284 71.7382Z" fill="#FFB573"/>
<path d="M256.56 72.1051C256.56 72.1051 250.702 72.7526 248.717 71.6992L247.457 75.7303C247.457 75.7303 250.423 79.7951 253.888 78.3941C255.472 77.7541 256.56 72.1051 256.56 72.1051Z" fill="#00A89F"/>
<path opacity="0.2" d="M255.688 62.9191C256.027 63.9793 256.289 65.1231 256.3 66.1035C258.238 65.8565 259.12 64.5341 259.515 63.5081C259.519 63.4815 259.519 63.4587 259.519 63.4321L257.528 62.2769C256.904 62.4175 256.27 62.6455 255.688 62.9191Z" fill="black"/>
<path d="M260.262 56.1399C260.729 59.5074 260.997 60.9191 259.699 63.0448C257.746 66.2422 253.604 66.2855 252.164 63.1756C250.868 60.3761 250.322 55.3396 253.236 53.199C256.107 51.09 259.795 52.7723 260.262 56.1399Z" fill="#FFB573"/>
<path d="M256.77 54.7651C259.275 56.4348 256.554 60.2329 260.094 58.8786C263.634 57.5242 260.476 52.9433 257.957 52.5056C255.44 52.0678 256.77 54.7651 256.77 54.7651Z" fill="#263238"/>
<path d="M255.421 58.3503C255.472 58.6311 255.371 58.8952 255.195 58.9401C255.019 58.9849 254.835 58.7938 254.784 58.5126C254.733 58.2314 254.833 57.9677 255.009 57.9224C255.185 57.878 255.369 58.0691 255.421 58.3503Z" fill="#263238"/>
<path d="M252.121 59.2444C252.172 59.5252 252.072 59.7893 251.896 59.8341C251.72 59.879 251.535 59.6878 251.484 59.4066C251.433 59.1258 251.533 58.8617 251.709 58.8165C251.885 58.772 252.07 58.9635 252.121 59.2444Z" fill="#263238"/>
<path d="M251.79 58.8124L251.108 58.7827C251.108 58.7827 251.536 59.2254 251.79 58.8124Z" fill="#263238"/>
<path d="M253.127 59.4697C253.127 59.4697 252.892 60.7959 252.496 61.5077C252.914 61.763 253.49 61.4507 253.49 61.4507L253.127 59.4697Z" fill="#ED893E"/>
<path d="M255.227 62.0937C255.092 62.1548 254.945 62.208 254.783 62.2495C254.74 62.2605 254.697 62.2327 254.689 62.1871C254.681 62.1419 254.708 62.0963 254.753 62.0845C255.933 61.7843 256.328 60.7811 256.332 60.7713C256.348 60.7268 256.396 60.7036 256.437 60.7192C256.478 60.7348 256.497 60.7834 256.481 60.8275C256.465 60.8663 256.149 61.6741 255.227 62.0937Z" fill="#263238"/>
<path d="M261.594 59.0918C261.487 59.8503 261.089 60.4291 260.642 60.7236C259.971 61.1663 259.367 60.4283 259.33 59.5019C259.296 58.6678 259.605 57.4328 260.386 57.3746C261.157 57.3176 261.716 58.2247 261.594 59.0918Z" fill="#FFB573"/>
<path d="M255.841 56.6069C255.8 56.6214 255.755 56.6191 255.715 56.5967C255.098 56.2448 254.564 56.5435 254.558 56.5469C254.479 56.5913 254.382 56.5632 254.343 56.4815C254.304 56.3998 254.336 56.2965 254.416 56.2505C254.443 56.2345 255.113 55.8595 255.879 56.2961C255.956 56.3398 255.981 56.4424 255.936 56.5256C255.914 56.5651 255.879 56.5936 255.841 56.6069Z" fill="#263238"/>
<path d="M250.877 57.9488C250.839 57.9647 250.796 57.9666 250.757 57.9499C250.676 57.9157 250.641 57.8177 250.678 57.7307C251.051 56.8589 251.787 56.6906 251.818 56.6838C251.906 56.6648 251.988 56.7233 252.002 56.8149C252.015 56.9061 251.954 56.9957 251.866 57.0151C251.837 57.0212 251.268 57.1603 250.972 57.8538C250.952 57.8986 250.917 57.9317 250.877 57.9488Z" fill="#263238"/>
<path d="M255.09 57.9188L254.408 57.8892C254.408 57.8892 254.836 58.3315 255.09 57.9188Z" fill="#263238"/>
<path d="M257.807 55.9935C257.807 55.9935 256.018 54.8979 255.783 52.8569C255.783 52.8569 252.442 53.6352 251.222 56.8325C251.222 56.8325 249.326 53.0838 253.686 51.6296C258.047 50.1753 261.073 52.5587 260.667 54.3496C260.261 56.1402 257.807 55.9935 257.807 55.9935Z" fill="#263238"/>
<path d="M217.482 91.6087C219.234 92.6305 221.051 93.7321 222.801 94.6715C223.24 94.904 223.672 95.1336 224.092 95.3308C224.505 95.5269 224.928 95.7013 225.221 95.8058C225.356 95.8594 225.489 95.878 225.373 95.8894C225.346 95.8837 225.014 95.9646 225.153 95.935C225.174 95.9388 225.264 95.9076 225.337 95.8864C225.67 95.7784 226.121 95.577 226.558 95.3749C228.345 94.5202 230.201 93.454 232.045 92.4238C233.89 91.3803 235.748 90.3125 237.622 89.2896L239.169 91.4274C237.561 92.9056 235.9 94.2839 234.184 95.6249C232.459 96.9648 230.725 98.2481 228.748 99.4473C228.24 99.7498 227.737 100.04 227.073 100.326C226.896 100.398 226.737 100.468 226.499 100.541L226.334 100.593C226.298 100.603 226.297 100.606 226.233 100.622L226.064 100.659C225.841 100.704 225.655 100.72 225.491 100.728C224.839 100.748 224.44 100.668 224.056 100.596C223.308 100.444 222.725 100.238 222.147 100.028C221.578 99.8144 221.036 99.5944 220.512 99.3565C219.465 98.8823 218.469 98.3754 217.496 97.8377C216.519 97.2924 215.586 96.7474 214.634 96.1113L217.482 91.6087Z" fill="#FFC3BD"/>
<path d="M237.666 89.2974L239.955 88.4683L240.443 92.2428C240.443 92.2428 238.634 92.687 237.405 91.6698L237.666 89.2974Z" fill="#FFC3BD"/>
<path d="M243.219 87.519L243.001 90.8934L240.444 92.2428L239.955 88.4687L243.219 87.519Z" fill="#FFC3BD"/>
<path d="M232.205 82.2926C232.152 82.5529 232.248 82.792 232.418 82.8262C232.589 82.8604 232.769 82.6772 232.822 82.4165C232.874 82.1562 232.778 81.9172 232.608 81.883C232.437 81.8488 232.257 82.0323 232.205 82.2926Z" fill="#263238"/>
<path d="M232.223 82.7876C232.223 82.7876 232.514 84.4094 233.02 85.2652C232.473 85.6026 231.729 85.2485 231.729 85.2485L232.223 82.7876Z" fill="#ED847E"/>
<path d="M231.541 80.6548C231.506 80.64 231.476 80.6126 231.459 80.5754C231.424 80.4971 231.459 80.4044 231.537 80.369C232.323 80.0122 232.934 80.3922 232.961 80.4089C233.034 80.4553 233.055 80.5518 233.009 80.6244C232.962 80.6966 232.865 80.7175 232.794 80.6727C232.774 80.6601 232.293 80.3691 231.666 80.6533C231.625 80.6719 231.58 80.6711 231.541 80.6548Z" fill="#263238"/>
<path d="M223.948 82.7866C223.448 85.1905 222.167 89.4419 219.989 90.2688C219.989 90.2688 219.647 92.7772 223.773 94.5161C228.31 96.4282 226.891 93.1777 226.891 93.1777C224.664 91.543 225.502 89.7326 226.66 88.1891L223.948 82.7866Z" fill="#FFC3BD"/>
<path d="M218.921 90.3037C218.85 89.5471 218.782 88.6868 219.63 88.7845C220.564 88.8916 226.094 90.6905 227.47 91.8089C226.627 92.4632 226.999 93.8605 226.999 93.8605L218.921 90.3037Z" fill="#00A89F"/>
<path d="M214.536 89.2153C214.536 89.2153 210.102 91.5626 206.479 113.723C211.534 115.343 220.796 118.311 223.256 119.099C224.119 116.802 226.148 104.899 232.155 94.6987C232.155 94.6987 229.447 93.2544 226.745 92.2569C224.631 91.4763 221.547 90.4199 219.613 89.9723C217.063 89.3818 214.536 89.2153 214.536 89.2153Z" fill="#00A89F"/>
<path opacity="0.6" d="M206.478 113.726L223.258 119.103C223.76 117.761 224.657 113.152 226.515 107.52C227.138 105.62 227.875 103.603 228.738 101.551C229.707 99.263 230.836 96.9412 232.154 94.6954C232.154 94.6954 229.449 93.2552 226.743 92.2558C224.63 91.4768 221.548 90.4204 219.614 89.972C217.061 89.3792 214.534 89.2158 214.534 89.2158C214.534 89.2158 213.698 89.6566 212.451 91.9784C211.684 93.4186 210.76 95.5656 209.78 98.7766C208.701 102.318 207.549 107.148 206.478 113.726Z" fill="#FAFAFA"/>
<path d="M223.628 79.9946C223.181 83.2329 222.755 85.1056 224.041 87.0721C225.974 90.0304 230.217 89.3589 231.622 86.3193C232.887 83.5833 233.405 78.7474 230.53 76.8447C227.697 74.971 224.074 76.7566 223.628 79.9946Z" fill="#FFC3BD"/>
<path d="M222.964 85.3019C223.903 86.5312 229.41 86.0665 229.996 82.0898C229.996 82.0898 232.585 80.7476 233.351 78.3859C234.118 76.0242 232.919 74.4951 231.049 74.2827C229.399 74.0953 229.103 74.9173 229.103 74.9173C229.103 74.9173 221.823 72.8105 222.115 76.2537C217.994 78.1415 221.793 83.7678 222.964 85.3019Z" fill="#263238"/>
<path d="M222.211 76.5701C222.211 76.5701 221.987 74.7917 220.444 75.0843C221.009 75.3324 221.897 75.8211 222.211 76.5701Z" fill="#263238"/>
<path d="M232.497 79.7958C232.497 79.7958 235.447 77.0206 233.553 74.9287C233.882 76.3693 233.562 78.3362 232.497 79.7958Z" fill="#263238"/>
<path d="M228.527 82.203C228.404 83.05 228.629 83.9183 228.989 84.5305C229.531 85.4512 230.365 85.1214 230.685 84.2037C230.974 83.3779 231.04 81.9035 230.269 81.2978C229.509 80.7012 228.669 81.2344 228.527 82.203Z" fill="#FFC3BD"/>
<path d="M230.735 155.992C231.114 155.992 231.48 155.94 231.602 155.769C231.645 155.71 231.679 155.609 231.596 155.464C231.55 155.383 231.476 155.328 231.375 155.301C230.884 155.167 229.852 155.755 229.809 155.78C229.783 155.794 229.77 155.823 229.774 155.852C229.779 155.88 229.801 155.903 229.83 155.909C230.018 155.947 230.382 155.992 230.735 155.992ZM231.203 155.419C231.253 155.419 231.298 155.424 231.338 155.435C231.403 155.453 231.447 155.485 231.475 155.533C231.525 155.62 231.507 155.663 231.489 155.688C231.352 155.879 230.606 155.883 230.057 155.805C230.33 155.665 230.858 155.419 231.203 155.419Z" fill="#00A89F"/>
<path d="M229.844 155.911C229.854 155.911 229.863 155.909 229.872 155.905C230.229 155.745 230.934 155.107 230.88 154.773C230.867 154.695 230.812 154.597 230.62 154.578C230.476 154.563 230.346 154.603 230.232 154.698C229.857 155.006 229.777 155.801 229.774 155.835C229.771 155.859 229.782 155.884 229.803 155.898C229.815 155.906 229.829 155.911 229.844 155.911ZM230.564 154.714C230.577 154.714 230.591 154.715 230.606 154.717C230.732 154.73 230.74 154.779 230.742 154.795C230.775 154.996 230.295 155.497 229.932 155.716C229.97 155.483 230.075 155.008 230.321 154.806C230.395 154.744 230.475 154.714 230.564 154.714Z" fill="#00A89F"/>
<path d="M226.273 155.703L229.017 156.791L231.81 150.547L229.066 149.459L226.273 155.703Z" fill="#FFC3BD"/>
<path d="M229.53 155.499H226.308C226.187 155.499 226.083 155.583 226.056 155.7L225.473 158.324C225.413 158.595 225.619 158.853 225.898 158.848C227.06 158.829 228.74 158.761 230.201 158.761C231.91 158.761 233.385 158.854 235.389 158.854C236.6 158.854 236.937 157.629 236.429 157.518C234.121 157.013 232.236 156.959 230.241 155.729C230.025 155.595 229.785 155.499 229.53 155.499Z" fill="#263238"/>
<path d="M206.478 113.722L209.806 130.468C210.749 131.027 212.197 131.388 213.922 131.608C217.3 132.038 221.738 131.935 225.561 131.749C229.855 131.544 233.366 131.228 233.708 131.441C234.51 131.943 227.1 152.326 227.1 152.326L231.645 152.425C231.645 152.425 241.78 135.04 242.73 129.264C243.079 127.132 243.379 124.476 239.321 122.439C235.749 120.645 223.099 120.322 223.099 120.322L223.764 117.339L206.478 113.722Z" fill="#263238"/>
<path opacity="0.2" d="M213.922 131.608C217.3 132.038 221.738 131.935 225.561 131.749C225.436 125.456 221.681 119.79 221.681 119.79L217.099 119.103L213.922 131.608Z" fill="black"/>
<path d="M178.464 150.499L178.283 153.444L185.086 154.156L185.267 151.211L178.464 150.499Z" fill="#FFC3BD"/>
<path d="M177.683 154.344C177.519 154.685 177.407 155.037 177.507 155.221C177.541 155.286 177.618 155.361 177.784 155.349C177.877 155.343 177.959 155.299 178.028 155.221C178.362 154.837 178.281 153.652 178.277 153.602C178.275 153.573 178.255 153.548 178.227 153.54C178.199 153.532 178.169 153.542 178.152 153.565C178.035 153.718 177.836 154.026 177.683 154.344ZM177.995 155.014C177.974 155.058 177.95 155.098 177.922 155.129C177.878 155.18 177.83 155.206 177.774 155.21C177.675 155.217 177.644 155.182 177.629 155.155C177.517 154.948 177.837 154.275 178.146 153.814C178.153 154.122 178.145 154.704 177.995 155.014Z" fill="#00A89F"/>
<path d="M178.145 153.577C178.141 153.586 178.138 153.595 178.138 153.605C178.127 153.996 178.395 154.908 178.719 155.005C178.795 155.027 178.907 155.02 179.008 154.855C179.084 154.733 179.104 154.598 179.069 154.454C178.954 153.982 178.273 153.565 178.244 153.547C178.223 153.534 178.196 153.534 178.175 153.546C178.161 153.553 178.151 153.564 178.145 153.577ZM178.909 154.746C178.903 154.758 178.896 154.77 178.889 154.783C178.823 154.89 178.775 154.876 178.759 154.871C178.565 154.813 178.321 154.163 178.283 153.741C178.475 153.876 178.858 154.178 178.933 154.487C178.955 154.581 178.947 154.665 178.909 154.746Z" fill="#00A89F"/>
<path d="M178.651 153.473L180.052 150.571C180.105 150.463 180.075 150.332 179.98 150.257L177.872 148.592C177.653 148.419 177.331 148.493 177.214 148.746C176.727 149.801 176.058 151.344 175.422 152.659C174.679 154.198 173.954 155.486 173.083 157.29C172.556 158.381 173.513 159.217 173.833 158.808C175.292 156.949 176.16 155.275 178.135 154.013C178.35 153.876 178.541 153.702 178.651 153.473Z" fill="#263238"/>
<path d="M206.434 113.512C206.434 113.512 203.644 125.819 209.808 130.468C209.808 130.468 208.542 147.24 206.083 148.997C203.091 151.134 182.522 150.499 182.522 150.499L182.262 155.841C182.262 155.841 204.02 159.703 210.86 157.809C218.869 155.591 223.764 117.34 223.764 117.34L206.434 113.512Z" fill="#263238"/>
<path opacity="0.2" d="M213.566 121.57L210.198 120.917C210.198 120.917 210.038 123.773 210.198 125.276L211.846 126.422L213.233 125.818C213.233 125.818 213.316 122.774 213.566 121.57Z" fill="black"/>
<path d="M222.689 117.461L222.404 118.848L223.651 119.099L223.94 117.723L222.689 117.461Z" fill="black"/>
<path d="M216.932 116.245L216.62 117.685L221.781 118.723L222.085 117.332L216.932 116.245Z" fill="black"/>
<path d="M210.502 114.888L210.198 116.393L215.967 117.552L216.267 116.104L210.502 114.888Z" fill="black"/>
<path d="M205.973 115.542L209.526 116.256H209.529L209.841 114.748L206.311 114.003L205.973 115.542Z" fill="black"/>
<path opacity="0.2" d="M226.515 107.52C227.139 105.62 227.876 103.602 228.738 101.55C228.279 100.737 227.568 100.289 226.546 100.574C226.546 100.574 224.995 104.104 226.515 107.52Z" fill="black"/>
<path d="M233.383 97.2326L233.357 97.9356L233.337 98.6872C233.332 99.1915 233.324 99.6976 233.33 100.204C233.337 101.216 233.38 102.226 233.448 103.226C233.595 105.221 233.886 107.184 234.431 108.962C234.97 110.687 235.903 112.457 237.002 114.17C238.085 115.887 239.365 117.595 240.636 119.206L238.873 121.17C237.903 120.498 237.056 119.799 236.205 119.039C235.363 118.283 234.561 117.477 233.791 116.622C233.035 115.759 232.297 114.856 231.641 113.864C230.978 112.883 230.365 111.807 229.891 110.646C229.411 109.505 229.059 108.35 228.789 107.195C228.511 106.04 228.323 104.884 228.186 103.731C228.051 102.579 227.978 101.428 227.956 100.279C227.947 99.7049 227.944 99.1303 227.965 98.5538C227.975 98.2654 227.984 97.977 228.003 97.6855C228.023 97.385 228.041 97.122 228.075 96.7705L233.383 97.2326Z" fill="#FFC3BD"/>
<path d="M226.695 97.5502C224.668 101.495 228.176 107.452 228.176 107.452L234.385 105.548C234.385 105.548 234.07 100.082 233.165 96.7241C232.048 92.5756 228.238 94.5467 226.695 97.5502Z" fill="#00A89F"/>
<path opacity="0.6" d="M226.695 97.5502C224.668 101.495 228.176 107.452 228.176 107.452L234.385 105.548C234.385 105.548 234.07 100.082 233.165 96.7241C232.048 92.5756 228.238 94.5467 226.695 97.5502Z" fill="#FAFAFA"/>
<path d="M234.576 104.732L227.101 106.23L227.739 107.792L234.81 105.873L234.576 104.732Z" fill="#00A89F"/>
<path d="M207.15 159.934L207.872 161.074H225.341C225.615 161.074 225.888 161.062 226.158 161.04C226.223 161.04 226.291 161.032 226.356 161.024C226.926 160.975 227.484 160.88 228.035 160.739C228.096 160.724 228.157 160.709 228.218 160.686H228.221C228.658 160.572 229.092 160.428 229.513 160.253C229.597 160.219 229.681 160.185 229.768 160.158C229.825 160.131 229.886 160.109 229.947 160.09C230.403 159.922 230.874 159.793 231.349 159.702C231.41 159.687 231.474 159.675 231.539 159.668C231.953 159.592 232.371 159.546 232.793 159.527C232.857 159.523 232.918 159.52 232.983 159.523C233.074 159.516 233.161 159.516 233.253 159.516H237.239C237.292 159.516 237.341 159.516 237.395 159.512C237.459 159.512 237.524 159.508 237.588 159.508C238.048 159.482 238.497 159.409 238.93 159.295C238.991 159.276 239.051 159.261 239.112 159.238C239.568 159.105 240.001 158.923 240.408 158.699C240.461 158.668 240.518 158.634 240.571 158.6C240.902 158.41 241.21 158.186 241.499 157.939C241.548 157.897 241.597 157.855 241.643 157.81C241.879 157.593 242.099 157.361 242.3 157.118C242.342 157.069 242.384 157.019 242.422 156.966C242.601 156.734 242.768 156.491 242.912 156.233C242.946 156.179 242.977 156.122 243.007 156.065C243.136 155.826 243.254 155.579 243.349 155.321C243.376 155.264 243.399 155.203 243.418 155.142C243.524 154.842 243.611 154.526 243.672 154.207C243.684 154.143 243.695 154.082 243.706 154.017C243.752 153.74 243.779 153.459 243.786 153.174C243.79 153.109 243.79 153.048 243.79 152.984V87.521H242.65V152.968C242.65 155.951 240.222 158.376 237.239 158.376H233.253C231.816 158.376 230.41 158.653 229.08 159.197C227.891 159.687 226.629 159.934 225.341 159.934H207.15Z" fill="#00A89F"/>
<path d="M243.79 87.9541H243.186V88.1441H243.79V87.9541Z" fill="#263238"/>
<path d="M243.79 88.9878H243.186V89.1778H243.79V88.9878Z" fill="#263238"/>
<path d="M243.79 90.0176H243.186V90.2076H243.79V90.0176Z" fill="#263238"/>
<path d="M243.79 91.0513H243.186V91.2413H243.79V91.0513Z" fill="#263238"/>
<path d="M243.79 92.085H243.186V92.275H243.79V92.085Z" fill="#263238"/>
<path d="M243.79 93.1147H243.186V93.3047H243.79V93.1147Z" fill="#263238"/>
<path d="M243.79 94.1484H243.186V94.3384H243.79V94.1484Z" fill="#263238"/>
<path d="M243.79 95.1816H243.186V95.3716H243.79V95.1816Z" fill="#263238"/>
<path d="M243.79 96.2114H243.186V96.4014H243.79V96.2114Z" fill="#263238"/>
<path d="M243.79 97.2451H243.186V97.4351H243.79V97.2451Z" fill="#263238"/>
<path d="M243.79 98.2749H243.186V98.4649H243.79V98.2749Z" fill="#263238"/>
<path d="M243.79 99.3086H243.186V99.4986H243.79V99.3086Z" fill="#263238"/>
<path d="M243.79 100.342H243.186V100.532H243.79V100.342Z" fill="#263238"/>
<path d="M243.79 101.372H243.186V101.562H243.79V101.372Z" fill="#263238"/>
<path d="M243.79 102.406H243.186V102.596H243.79V102.406Z" fill="#263238"/>
<path d="M243.79 103.439H243.186V103.629H243.79V103.439Z" fill="#263238"/>
<path d="M243.79 104.469H243.186V104.659H243.79V104.469Z" fill="#263238"/>
<path d="M243.79 105.502H243.186V105.692H243.79V105.502Z" fill="#263238"/>
<path d="M243.79 106.536H243.186V106.726H243.79V106.536Z" fill="#263238"/>
<path d="M243.79 107.566H243.186V107.756H243.79V107.566Z" fill="#263238"/>
<path d="M243.79 108.6H243.186V108.79H243.79V108.6Z" fill="#263238"/>
<path d="M243.79 109.629H243.186V109.819H243.79V109.629Z" fill="#263238"/>
<path d="M243.79 110.663H243.186V110.853H243.79V110.663Z" fill="#263238"/>
<path d="M243.79 111.697H243.186V111.887H243.79V111.697Z" fill="#263238"/>
<path d="M243.79 112.727H243.186V112.917H243.79V112.727Z" fill="#263238"/>
<path d="M243.79 113.76H243.186V113.95H243.79V113.76Z" fill="#263238"/>
<path d="M243.79 114.793H243.186V114.983H243.79V114.793Z" fill="#263238"/>
<path d="M243.79 115.823H243.186V116.013H243.79V115.823Z" fill="#263238"/>
<path d="M243.79 116.857H243.186V117.047H243.79V116.857Z" fill="#263238"/>
<path d="M243.79 117.891H243.186V118.081H243.79V117.891Z" fill="#263238"/>
<path d="M243.79 118.92H243.186V119.11H243.79V118.92Z" fill="#263238"/>
<path d="M243.79 119.954H243.186V120.144H243.79V119.954Z" fill="#263238"/>
<path d="M243.79 120.984H243.186V121.174H243.79V120.984Z" fill="#263238"/>
<path d="M243.79 122.018H243.186V122.208H243.79V122.018Z" fill="#263238"/>
<path d="M243.79 123.051H243.186V123.241H243.79V123.051Z" fill="#263238"/>
<path d="M243.79 124.081H243.186V124.271H243.79V124.081Z" fill="#263238"/>
<path d="M243.79 125.114H243.186V125.304H243.79V125.114Z" fill="#263238"/>
<path d="M243.79 126.148H243.186V126.338H243.79V126.148Z" fill="#263238"/>
<path d="M243.79 127.178H243.186V127.368H243.79V127.178Z" fill="#263238"/>
<path d="M243.79 128.211H243.186V128.401H243.79V128.211Z" fill="#263238"/>
<path d="M243.79 129.245H243.186V129.435H243.79V129.245Z" fill="#263238"/>
<path d="M243.79 130.275H243.186V130.465H243.79V130.275Z" fill="#263238"/>
<path d="M243.79 131.309H243.186V131.499H243.79V131.309Z" fill="#263238"/>
<path d="M243.79 132.338H243.186V132.528H243.79V132.338Z" fill="#263238"/>
<path d="M243.79 133.372H243.186V133.562H243.79V133.372Z" fill="#263238"/>
<path d="M243.79 134.405H243.186V134.595H243.79V134.405Z" fill="#263238"/>
<path d="M243.79 135.435H243.186V135.625H243.79V135.435Z" fill="#263238"/>
<path d="M243.79 136.469H243.186V136.659H243.79V136.469Z" fill="#263238"/>
<path d="M243.79 137.502H243.186V137.692H243.79V137.502Z" fill="#263238"/>
<path d="M243.79 138.532H243.186V138.722H243.79V138.532Z" fill="#263238"/>
<path d="M243.79 139.566H243.186V139.756H243.79V139.566Z" fill="#263238"/>
<path d="M243.79 140.596H243.186V140.786H243.79V140.596Z" fill="#263238"/>
<path d="M243.79 141.629H243.186V141.819H243.79V141.629Z" fill="#263238"/>
<path d="M243.79 142.663H243.186V142.853H243.79V142.663Z" fill="#263238"/>
<path d="M243.79 143.692H243.186V143.882H243.79V143.692Z" fill="#263238"/>
<path d="M243.79 144.726H243.186V144.916H243.79V144.726Z" fill="#263238"/>
<path d="M243.79 145.76H243.186V145.95H243.79V145.76Z" fill="#263238"/>
<path d="M243.79 146.79H243.186V146.98H243.79V146.79Z" fill="#263238"/>
<path d="M243.79 147.823H243.186V148.013H243.79V147.823Z" fill="#263238"/>
<path d="M243.79 148.853H243.186V149.043H243.79V148.853Z" fill="#263238"/>
<path d="M243.79 149.887H243.186V150.077H243.79V149.887Z" fill="#263238"/>
<path d="M243.79 150.92H243.186V151.11H243.79V150.92Z" fill="#263238"/>
<path d="M243.79 151.95H243.186V152.14H243.79V151.95Z" fill="#263238"/>
<path d="M243.186 152.983V153.173H243.786C243.79 153.109 243.79 153.048 243.79 152.983H243.186Z" fill="#263238"/>
<path d="M243.186 154.017V154.207H243.672C243.683 154.142 243.695 154.082 243.706 154.017H243.186Z" fill="#263238"/>
<path d="M242.916 155.218L243.349 155.321C243.376 155.264 243.399 155.203 243.418 155.142L242.962 155.032L242.916 155.218Z" fill="#263238"/>
<path d="M242.319 155.978L242.912 156.233C242.946 156.179 242.977 156.122 243.007 156.065L242.395 155.803L242.319 155.978Z" fill="#263238"/>
<path d="M241.788 156.897L242.301 157.118C242.343 157.068 242.385 157.019 242.423 156.966L241.86 156.723L241.788 156.897Z" fill="#263238"/>
<path d="M241.039 157.608L241.499 157.939C241.548 157.897 241.598 157.855 241.643 157.809L241.149 157.452L241.039 157.608Z" fill="#263238"/>
<path d="M240.009 158.231L240.408 158.699C240.461 158.668 240.518 158.634 240.571 158.6L240.153 158.11L240.009 158.231Z" fill="#263238"/>
<path d="M238.683 158.759L238.93 159.295C238.99 159.276 239.051 159.261 239.112 159.238L238.854 158.68L238.683 158.759Z" fill="#263238"/>
<path d="M237.304 158.885L237.395 159.512C237.46 159.512 237.524 159.508 237.589 159.508L237.494 158.858L237.304 158.885Z" fill="#263238"/>
<path d="M235.628 159.516H235.818L235.837 158.866L235.647 158.862L235.628 159.516Z" fill="#263238"/>
<path d="M234.211 159.516H234.401L234.42 158.866L234.23 158.862L234.211 159.516Z" fill="#263238"/>
<path d="M232.793 159.527C232.858 159.524 232.918 159.52 232.983 159.524L233.006 158.866L232.816 158.862L232.793 159.527Z" fill="#263238"/>
<path d="M231.349 159.702C231.409 159.687 231.474 159.675 231.539 159.668L231.558 159.075L231.368 159.067L231.349 159.702Z" fill="#263238"/>
<path d="M229.632 159.584L229.769 160.158C229.826 160.131 229.886 160.109 229.947 160.09L229.818 159.539L229.632 159.584Z" fill="#263238"/>
<path d="M227.773 160.067L228.036 160.739C228.096 160.724 228.157 160.709 228.218 160.686L227.952 159.995L227.773 160.067Z" fill="#263238"/>
<path d="M225.858 160.268L226.159 161.04C226.223 161.04 226.292 161.032 226.356 161.024L226.037 160.2L225.858 160.268Z" fill="#263238"/>
<path d="M224.281 160.268L224.593 161.074H224.802L224.46 160.2L224.281 160.268Z" fill="#263238"/>
<path d="M222.708 160.268L223.02 161.074H223.225L222.883 160.2L222.708 160.268Z" fill="#263238"/>
<path d="M221.131 160.268L221.442 161.074H221.648L221.309 160.2L221.131 160.268Z" fill="#263238"/>
<path d="M219.554 160.268L219.865 161.074H220.074L219.732 160.2L219.554 160.268Z" fill="#263238"/>
<path d="M217.977 160.268L218.288 161.074H218.497L218.155 160.2L217.977 160.268Z" fill="#263238"/>
<path d="M216.403 160.268L216.715 161.074H216.92L216.578 160.2L216.403 160.268Z" fill="#263238"/>
<path d="M214.827 160.268L215.139 161.074H215.344L215.006 160.2L214.827 160.268Z" fill="#263238"/>
<path d="M213.25 160.268L213.562 161.074H213.771L213.429 160.2L213.25 160.268Z" fill="#263238"/>
<path d="M211.673 160.268L211.984 161.074H212.193L211.851 160.2L211.673 160.268Z" fill="#263238"/>
<path d="M210.1 160.268L210.411 161.074H210.616L210.274 160.2L210.1 160.268Z" fill="#263238"/>
<path d="M208.522 160.268L208.834 161.074H209.039L208.701 160.2L208.522 160.268Z" fill="#263238"/>
<path d="M240.449 119.06L243.38 121.955L240.473 124.08C240.473 124.08 238.139 122.345 238.775 120.032L240.449 119.06Z" fill="#FFC3BD"/>
<path d="M243.755 123.604L241.709 125.819L240.473 124.08L243.38 121.955L243.755 123.604Z" fill="#FFC3BD"/>
<path d="M190 151.437H0V151.532H190V151.437Z" fill="#DBDBDB"/>
<path d="M170.962 157.553H158.376V157.648H170.962V157.553Z" fill="#DBDBDB"/>
<path d="M125.864 158.584H122.561V158.679H125.864V158.584Z" fill="#DBDBDB"/>
<path d="M157.996 154.025H150.703V154.12H157.996V154.025Z" fill="#DBDBDB"/>
<path d="M36.3479 154.663H19.9346V154.758H36.3479V154.663Z" fill="#DBDBDB"/>
<path d="M42.138 154.663H39.7314V154.758H42.138V154.663Z" fill="#DBDBDB"/>
<path d="M85.5559 156.268H49.959V156.363H85.5559V156.268Z" fill="#DBDBDB"/>
<path d="M90.0652 134.49H16.6876C15.4917 134.49 14.5186 133.516 14.5186 132.321V29.1764C14.5186 27.9805 15.4917 27.0073 16.6876 27.0073H90.0652C91.2607 27.0073 92.2339 27.9805 92.2339 29.1764V132.321C92.2339 133.516 91.2607 134.49 90.0652 134.49ZM16.6876 27.1027C15.5438 27.1027 14.6136 28.0329 14.6136 29.1767V132.321C14.6136 133.465 15.5438 134.395 16.6876 134.395H90.0652C91.2086 134.395 92.1389 133.465 92.1389 132.321V29.1764C92.1389 28.0329 91.2086 27.1023 90.0652 27.1023L16.6876 27.1027Z" fill="#DBDBDB"/>
<path d="M172.258 134.49H98.8806C97.6847 134.49 96.7119 133.516 96.7119 132.321V29.1764C96.7119 27.9805 97.6851 27.0073 98.8806 27.0073H172.258C173.454 27.0073 174.427 27.9805 174.427 29.1764V132.321C174.427 133.516 173.454 134.49 172.258 134.49ZM98.8806 27.1027C97.7372 27.1027 96.8069 28.0329 96.8069 29.1767V132.321C96.8069 133.465 97.7372 134.395 98.8806 134.395H172.258C173.402 134.395 174.332 133.465 174.332 132.321V29.1764C174.332 28.0329 173.402 27.1023 172.258 27.1023L98.8806 27.1027Z" fill="#DBDBDB"/>
<path d="M131.209 150.572H129.857V62.1125C129.857 61.7975 129.602 61.5425 129.287 61.5425H58.5604C58.2454 61.5425 57.9904 61.7975 57.9904 62.1125V150.572H56.7155C56.4005 150.572 56.1455 150.827 56.1455 151.142C56.1455 151.457 56.4005 151.712 56.7155 151.712H60.9194C61.2345 151.712 61.4894 151.457 61.4894 151.142C61.4894 150.827 61.2345 150.572 60.9194 150.572H59.1308V62.6825H128.717V150.572H127.006C126.691 150.572 126.436 150.827 126.436 151.142C126.436 151.457 126.691 151.712 127.006 151.712H131.21C131.525 151.712 131.78 151.457 131.78 151.142C131.779 150.827 131.524 150.572 131.209 150.572Z" fill="#F0F0F0"/>
<path d="M67.8107 73.6191L69.5101 84.5141L60.8389 136.894H89.5832L81.1719 85.7772L83.0833 74.2393L67.8107 73.6191Z" fill="#DBDBDB"/>
<path d="M75.6282 65.6948L67.6265 71.2056C67.2386 71.4727 67.4278 72.0807 67.8986 72.0807H82.8623C83.3259 72.0807 83.52 71.4887 83.1461 71.2143L75.6282 65.6948Z" stroke="#E0E0E0" stroke-width="0.38" stroke-miterlimit="10" stroke-linecap="round" stroke-linejoin="round"/>
<path d="M75.6284 65.6946V63.6745C75.6284 63.6745 74.0035 61.1221 75.6284 61.1221C77.2533 61.1221 76.6799 62.1047 76.6799 62.1047" stroke="#E0E0E0" stroke-width="0.38" stroke-miterlimit="10" stroke-linecap="round" stroke-linejoin="round"/>
<path d="M71.1353 74.5235L70.8488 68.4062L69.415 69.4737L69.9406 74.715L71.1353 74.5235Z" fill="#DBDBDB"/>
<path d="M79.8818 74.715L80.4553 68.4062L81.7457 69.4737L81.411 74.715H79.8818Z" fill="#DBDBDB"/>
<path d="M94.7874 65.6948L86.7857 71.2056C86.3977 71.4727 86.587 72.0807 87.0578 72.0807H102.021C102.485 72.0807 102.679 71.4887 102.305 71.2143L94.7874 65.6948Z" stroke="#E0E0E0" stroke-width="0.38" stroke-miterlimit="10" stroke-linecap="round" stroke-linejoin="round"/>
<path d="M94.7876 65.6946V63.6745C94.7876 63.6745 93.1627 61.1221 94.7876 61.1221C96.4125 61.1221 95.8391 62.1047 95.8391 62.1047" stroke="#E0E0E0" stroke-width="0.38" stroke-miterlimit="10" stroke-linecap="round" stroke-linejoin="round"/>
<path d="M90.9124 67.8262C90.9124 67.8262 93.6028 69.7673 95.0012 69.7673C96.3996 69.7673 98.2988 67.6294 98.2988 67.6294L103.903 71.4507L100.759 78.7334L104.292 121.17H84.4668L88.841 78.7334L84.8616 71.9489L90.9124 67.8262Z" fill="#F5F5F5"/>
<path d="M113.947 65.6948L105.945 71.2056C105.557 71.4727 105.746 72.0807 106.217 72.0807H121.181C121.644 72.0807 121.838 71.4887 121.464 71.2143L113.947 65.6948Z" stroke="#E0E0E0" stroke-width="0.38" stroke-miterlimit="10" stroke-linecap="round" stroke-linejoin="round"/>
<path d="M113.947 65.6946V63.6745C113.947 63.6745 112.322 61.1221 113.947 61.1221C115.572 61.1221 114.998 62.1047 114.998 62.1047" stroke="#E0E0E0" stroke-width="0.38" stroke-miterlimit="10" stroke-linecap="round" stroke-linejoin="round"/>
<path d="M107.759 69.2762C107.759 69.2762 108.854 72.9413 106.685 75.2316L104.291 113.336L122.165 113.215L121.203 74.9173C121.203 74.9173 119.044 72.1046 119.973 69.6646L117.67 67.5206C117.67 67.5206 115.064 69.413 113.699 69.1831C112.333 68.9532 110.481 67.1543 110.481 67.1543L107.759 69.2762Z" fill="#DBDBDB"/>
<path d="M34.5034 150.37H38.9407V106.654H40.8627V150.37H45.3C46.0417 150.37 46.6452 150.97 46.6452 151.712H33.1582C33.1582 150.97 33.7616 150.37 34.5034 150.37Z" fill="#E6E6E6"/>
<path d="M40.8631 106.654V111.75L38.9414 112.756V106.654H40.8631Z" fill="#E0E0E0"/>
<path d="M45.8442 94.2801C47.232 97.4877 48.6592 101.885 48.91 106.801C48.9423 107.425 48.5639 107.969 48.0201 108.199H31.7838C31.2404 107.969 30.8616 107.425 30.8942 106.801C31.1447 101.885 32.5689 97.4877 33.9601 94.2801C35.5325 90.6439 35.3744 86.4936 33.5314 82.9862C32.0019 80.0852 30.5842 77.0688 30.8973 76.4327C31.5402 75.1403 32.1828 74.5175 35.3972 74.1417C37.4971 73.8943 37.9026 72.668 37.9292 71.8472C37.9425 71.4418 37.7677 71.0496 37.4675 70.776C34.5202 68.0924 34.3587 61.9444 39.3397 61.1498L39.3432 61.064C39.5081 61.064 39.6662 61.0704 39.8212 61.0803C39.874 61.0837 39.9268 61.0837 39.9827 61.0803C40.1377 61.0704 40.2958 61.064 40.4607 61.064L40.4642 61.1498C45.4452 61.9444 45.2837 68.0924 42.3364 70.776C42.0366 71.0496 41.8584 71.4418 41.8751 71.8472C41.9013 72.668 42.3037 73.8943 44.4067 74.1417C47.6207 74.5175 48.2637 75.1407 48.9066 76.4327C49.2197 77.0688 47.7989 80.0852 46.2728 82.9862C44.4298 86.4936 44.2718 90.6439 45.8442 94.2801Z" fill="#F0F0F0"/>
<path d="M36.6699 73.7914C36.6733 73.7949 36.6733 73.7949 36.6733 73.7949C36.6733 73.7949 40.0458 74.2334 41.8786 71.8827C41.8752 71.8694 41.8752 71.8595 41.8752 71.8466C41.8588 71.4412 42.0367 71.049 42.3365 70.7754C42.3365 70.7754 39.8509 72.2357 37.4675 70.7754C37.7677 71.049 37.9422 71.4412 37.9292 71.8466C37.9091 72.463 37.6754 73.3069 36.6699 73.7914Z" fill="#DBDBDB"/>
<path d="M34.5665 92.5528C36.1853 92.8891 38.1533 93.1988 39.8774 93.1988C41.4992 93.1988 43.5003 92.9252 45.254 92.612C44.4727 89.8263 44.6376 86.8528 45.7286 84.1627C44.9078 84.4496 44.1299 84.6837 43.7572 84.6837C42.7783 84.6837 41.001 82.5508 39.9002 82.5508C38.8023 82.5508 37.0422 84.6837 36.0629 84.6837C35.6806 84.6837 34.853 84.3543 33.9893 83.9518C35.1498 86.6783 35.3478 89.7111 34.5665 92.5528Z" fill="#DBDBDB"/>
<path d="M76.7276 51.7092C80.4022 51.7092 83.3811 48.7303 83.3811 45.0558C83.3811 41.3812 80.4022 38.4023 76.7276 38.4023C73.0531 38.4023 70.0742 41.3812 70.0742 45.0558C70.0742 48.7303 73.0531 51.7092 76.7276 51.7092Z" fill="#E0E0E0"/>
<path d="M76.7278 50.7133C79.8523 50.7133 82.3852 48.1804 82.3852 45.0559C82.3852 41.9314 79.8523 39.3984 76.7278 39.3984C73.6032 39.3984 71.0703 41.9314 71.0703 45.0559C71.0703 48.1804 73.6032 50.7133 76.7278 50.7133Z" fill="#F0F0F0"/>
<path d="M76.9941 41.1748V45.1295L79.615 43.6463" fill="#F0F0F0"/>
<path d="M76.9941 41.1748V45.1295L79.615 43.6463" stroke="#E0E0E0" stroke-width="0.564984" stroke-miterlimit="10" stroke-linecap="round" stroke-linejoin="round"/>
<path d="M155.175 137.798C155.179 137.648 155.685 122.722 158.113 120.361C160.474 118.065 163.185 120.275 163.299 120.37L163.542 120.078C163.511 120.052 160.453 117.556 157.848 120.088C155.311 122.555 154.815 137.165 154.795 137.786L155.175 137.798Z" fill="#E0E0E0"/>
<path d="M154.966 140.733C154.984 140.554 156.626 122.813 150.147 115.377L149.86 115.627C156.232 122.939 154.605 140.519 154.588 140.695L154.966 140.733Z" fill="#E0E0E0"/>
<path d="M155.205 138.856L155.585 138.83C155.571 138.629 154.317 118.662 159.069 114.29L158.812 114.011C153.926 118.505 155.151 138.027 155.205 138.856Z" fill="#E0E0E0"/>
<path d="M154.587 138.845L154.967 138.842C154.962 138.292 154.81 125.354 151.135 123.248C150.318 122.78 149.519 122.702 148.758 123.016C146.536 123.936 145.434 127.89 145.389 128.058L145.755 128.159C145.766 128.119 146.854 124.215 148.904 123.368C149.55 123.101 150.237 123.171 150.947 123.578C154.433 125.576 154.586 138.712 154.587 138.845Z" fill="#E0E0E0"/>
<path d="M156.018 138.854L156.398 138.832C156.392 138.73 155.843 128.609 158.575 125.043C159.237 124.179 159.955 123.767 160.714 123.82C162.504 123.945 164.005 126.564 164.02 126.59L164.351 126.403C164.286 126.288 162.735 123.58 160.741 123.441C159.849 123.377 159.018 123.839 158.273 124.811C155.456 128.489 155.994 138.433 156.018 138.854Z" fill="#E0E0E0"/>
<path d="M155.42 140.231C155.494 139.249 157.205 116.138 154.194 112.065L153.889 112.291C156.817 116.251 155.059 139.963 155.04 140.202L155.42 140.231Z" fill="#E0E0E0"/>
<path d="M147.938 125.359C147.938 125.359 149.745 126.024 149.208 127.597C148.671 129.169 142.958 131.756 142.958 131.756C142.958 131.756 140.566 129.564 142.763 125.998C144.96 122.431 147.89 124.233 147.938 125.359Z" fill="#DBDBDB"/>
<path d="M155.791 122.365C155.791 122.365 153.867 122.285 153.758 123.943C153.648 125.601 157.925 130.187 157.925 130.187C157.925 130.187 160.977 129.084 160.321 124.947C159.666 120.81 156.269 121.346 155.791 122.365Z" fill="#DBDBDB"/>
<path d="M157.419 114.43C157.419 114.43 156.137 114.293 156.24 113.511C156.344 112.73 161.226 110.72 164.106 113.971C164.106 113.971 162.262 117.139 159.595 117.18C156.929 117.222 157.419 114.43 157.419 114.43Z" fill="#DBDBDB"/>
<path d="M155.03 112.533C155.03 112.533 156.191 113.095 156.516 112.377C156.842 111.66 153.762 107.371 149.598 108.607C149.598 108.607 149.487 112.271 151.728 113.716C153.969 115.162 155.03 112.533 155.03 112.533Z" fill="#DBDBDB"/>
<path d="M161.102 124.727C161.102 124.727 160.217 124.012 161.172 123.663C162.128 123.314 166.814 123.414 166.863 128.056C166.863 128.056 161.404 128.963 160.729 127.195C160.053 125.426 161.102 124.727 161.102 124.727Z" fill="#DBDBDB"/>
<path d="M149.971 114.314C149.971 114.314 150.856 113.599 149.901 113.251C148.946 112.902 144.259 113.001 144.21 117.644C144.21 117.644 149.669 118.551 150.344 116.782C151.02 115.014 149.971 114.314 149.971 114.314Z" fill="#DBDBDB"/>
<path d="M152.857 118.054C152.857 118.054 152.935 117.185 152.233 117.525C151.532 117.866 149.089 120.502 151.621 123.003C151.621 123.003 155.031 120.478 154.416 119.163C153.802 117.848 152.857 118.054 152.857 118.054Z" fill="#DBDBDB"/>
<path d="M161.893 119.292C161.893 119.292 161.364 118.598 162.139 118.512C162.914 118.426 166.386 119.353 165.577 122.82C165.577 122.82 161.347 122.502 161.166 121.062C160.984 119.622 161.893 119.292 161.893 119.292Z" fill="#DBDBDB"/>
<path d="M147.601 151.712H162.116L163.682 135.82H146.035L147.601 151.712Z" fill="#F0F0F0"/>
<path d="M145.26 137.573H164.457V134.067H145.26V137.573Z" fill="#E6E6E6"/>
</svg>
