<svg width="144" height="120" viewBox="0 0 144 120" fill="none" xmlns="http://www.w3.org/2000/svg">
<rect width="144" height="120" rx="5" fill="#FFF2F3"/>
<path d="M134.189 97.8794H0V97.9465H134.189V97.8794Z" fill="#EBEBEB"/>
<path d="M120.743 100.433H96.3477V100.5H120.743V100.433Z" fill="#EBEBEB"/>
<path d="M88.892 99.7041H82.2129V99.7712H88.892V99.7041Z" fill="#EBEBEB"/>
<path d="M104.16 102.924H93.8037V102.991H104.16V102.924Z" fill="#EBEBEB"/>
<path d="M20.1537 102.475H14.0781V102.542H20.1537V102.475Z" fill="#EBEBEB"/>
<path d="M29.7603 102.475H22.5439V102.542H29.7603V102.475Z" fill="#EBEBEB"/>
<path d="M60.4238 101.344H47.8535V101.411H60.4238V101.344Z" fill="#EBEBEB"/>
<path d="M63.6092 85.9088H11.7858C10.9412 85.9088 10.2539 85.2215 10.2539 84.3769V11.5319C10.2539 10.6873 10.9412 10 11.7858 10H63.6092C64.4536 10 65.1409 10.6873 65.1409 11.5319V84.3772C65.1409 85.2218 64.4536 85.9088 63.6092 85.9088ZM11.7858 10.0671C10.978 10.0671 10.321 10.7241 10.321 11.5319V84.3772C10.321 85.185 10.978 85.842 11.7858 85.842H63.6092C64.4168 85.842 65.0738 85.185 65.0738 84.3772V11.5319C65.0738 10.7243 64.4168 10.0671 63.6092 10.0671H11.7858Z" fill="#EBEBEB"/>
<path d="M121.658 85.9088H69.8344C68.9898 85.9088 68.3027 85.2215 68.3027 84.3769V11.5319C68.3027 10.6873 68.9898 10 69.8344 10H121.658C122.502 10 123.189 10.6873 123.189 11.5319V84.3772C123.19 85.2218 122.502 85.9088 121.658 85.9088ZM69.8344 10.0671C69.0268 10.0671 68.3698 10.7241 68.3698 11.5319V84.3772C68.3698 85.185 69.0268 85.842 69.8344 85.842H121.658C122.465 85.842 123.122 85.185 123.122 84.3772V11.5319C123.122 10.7243 122.465 10.0671 121.658 10.0671H69.8344Z" fill="#EBEBEB"/>
<path d="M14.0799 97.8799H46.166L46.166 26.9186H14.0799L14.0799 97.8799Z" fill="#F0F0F0"/>
<path d="M14.0793 97.8799H44.6445L44.6445 26.9186H14.0793L14.0793 97.8799Z" fill="#F5F5F5"/>
<path d="M43.0342 96.2682L43.0342 28.5273L15.6892 28.5273L15.6892 96.2682H43.0342Z" fill="#F0F0F0"/>
<path d="M24.5252 60.4755H18.9492C18.5555 60.4755 18.2334 60.1534 18.2334 59.7597C18.2334 59.366 18.5555 59.0439 18.9492 59.0439H24.5255C24.9192 59.0439 25.2413 59.366 25.2413 59.7597C25.241 60.1534 24.919 60.4755 24.5252 60.4755Z" fill="white"/>
<path d="M16.1074 96.2682L16.1074 28.5273H15.6898L15.6898 96.2682H16.1074Z" fill="#F0F0F0"/>
<path d="M61.1965 96.5303H65.9736V75.8123H61.1965V96.5303Z" fill="#F0F0F0"/>
<path d="M41.4979 97.8433H65.0566V96.5306H41.4979V97.8433Z" fill="#F0F0F0"/>
<path d="M61.196 75.8135H40.5801V96.5314H61.196V75.8135Z" fill="#F5F5F5"/>
<path d="M59.3178 78.3638H42.458V85.1585H59.3178V78.3638Z" fill="#F0F0F0"/>
<path d="M59.3178 87.187H42.458V93.9817H59.3178V87.187Z" fill="#F0F0F0"/>
<path d="M48.9962 78.9377H52.7816C53.0379 78.9377 53.2475 78.7281 53.2475 78.4718C53.2475 78.2155 53.0379 78.0059 52.7816 78.0059H48.9962C48.7399 78.0059 48.5303 78.2155 48.5303 78.4718C48.5303 78.7281 48.7399 78.9377 48.9962 78.9377Z" fill="#F5F5F5"/>
<path d="M48.9962 87.757H52.7816C53.0379 87.757 53.2475 87.5474 53.2475 87.2911C53.2475 87.0348 53.0379 86.8252 52.7816 86.8252H48.9962C48.7399 86.8252 48.5303 87.0348 48.5303 87.2911C48.5303 87.5471 48.7399 87.757 48.9962 87.757Z" fill="#F5F5F5"/>
<path d="M52.4602 75.4085C52.2656 75.4085 52.1064 75.2494 52.1064 75.0548V64.2893C52.1064 64.0947 52.2656 63.9355 52.4602 63.9355C52.6547 63.9355 52.8139 64.0947 52.8139 64.2893V75.0548C52.8139 75.2494 52.6547 75.4085 52.4602 75.4085Z" fill="#F5F5F5"/>
<path d="M55.7742 74.9888H49.1455V75.8239H55.7742V74.9888Z" fill="#F0F0F0"/>
<path d="M54.295 68.9665C54.1979 68.9665 54.1182 68.887 54.1182 68.7896V63.4068C54.1182 63.3097 54.1976 63.23 54.295 63.23C54.3922 63.23 54.4719 63.3094 54.4719 63.4068V68.7896C54.4719 68.887 54.3924 68.9665 54.295 68.9665Z" fill="#F0F0F0"/>
<path d="M47.3057 65.2693C47.3057 65.2693 47.4366 60.2026 52.4596 60.2026C57.4825 60.2026 57.6135 65.2693 57.6135 65.2693H47.3057Z" fill="#F0F0F0"/>
<path d="M90.7941 72.439V72.4408C90.9371 72.4408 91.081 72.4438 91.2262 72.4537C94.2774 72.662 96.7443 75.142 96.9389 78.194C96.9834 78.8909 96.9112 79.5648 96.7408 80.1982C96.0379 82.8079 95.7754 85.5168 95.7754 88.2194V96.0953C95.7754 96.6664 95.3125 97.1294 94.7414 97.1294H90.7941H86.8468H69.7412V72.439H90.7941Z" fill="#F0F0F0"/>
<path d="M63.585 78.5965C63.585 75.0529 66.5784 72.2084 70.1747 72.4537C73.2259 72.662 75.6928 75.142 75.8874 78.194C75.9319 78.8909 75.8597 79.5648 75.6893 80.1982C74.9864 82.8079 74.724 85.5168 74.724 88.2194V96.0953C74.724 96.6664 74.261 97.1294 73.6899 97.1294H65.7956C65.2245 97.1294 64.7615 96.6664 64.7615 96.0953V87.7569C64.7615 85.2216 64.4854 82.6849 63.808 80.2419C63.6625 79.7183 63.585 79.1666 63.585 78.5965Z" fill="#F5F5F5"/>
<path d="M78.2274 97.1265H100.667V82.1354H78.2274V97.1265Z" fill="#F0F0F0"/>
<path d="M93.8391 57.8711H114.553C117.127 57.8711 119.214 59.9574 119.214 62.5314V85.5252H89.1787V62.5314C89.1787 59.9574 91.2654 57.8711 93.8391 57.8711Z" fill="#E0E0E0"/>
<path d="M87.7473 57.8711H108.91C111.36 57.8711 113.346 59.8571 113.346 62.3068V85.5249H83.3115V62.3068C83.3115 59.8571 85.2975 57.8711 87.7473 57.8711Z" fill="#F5F5F5"/>
<path d="M78.5145 80.7671H99.1978C99.4208 80.7671 99.6017 80.948 99.6017 81.171V86.4682C99.6017 86.6912 99.4208 86.8721 99.1978 86.8721H78.5145C77.7676 86.8721 77.1621 86.2666 77.1621 85.5197V82.1197C77.1618 81.3728 77.7676 80.7671 78.5145 80.7671Z" fill="#E0E0E0"/>
<path d="M121.427 72.439V72.4408C121.57 72.4408 121.714 72.4438 121.859 72.4537C124.91 72.662 127.377 75.142 127.572 78.194C127.616 78.8909 127.544 79.5648 127.374 80.1982C126.671 82.8079 126.408 85.5168 126.408 88.2194V96.0953C126.408 96.6664 125.945 97.1294 125.374 97.1294H121.427H117.48H100.374V72.439H121.427Z" fill="#F0F0F0"/>
<path d="M94.2158 78.5965C94.2158 75.0529 97.2093 72.2084 100.806 72.4537C103.857 72.662 106.324 75.142 106.518 78.194C106.563 78.8909 106.491 79.5648 106.32 80.1982C105.617 82.8079 105.355 85.5168 105.355 88.2194V96.0953C105.355 96.6664 104.892 97.1294 104.321 97.1294H96.4264C95.8553 97.1294 95.3924 96.6664 95.3924 96.0953V87.7569C95.3924 85.2216 95.1162 82.6849 94.4388 80.2419C94.2934 79.7183 94.2158 79.1666 94.2158 78.5965Z" fill="#F5F5F5"/>
<path d="M70.1812 97.876H120.986C121.4 97.876 121.736 97.5406 121.736 97.1265H69.4316C69.4316 97.5406 69.7671 97.876 70.1812 97.876Z" fill="#E0E0E0"/>
<path d="M100.275 40.2988H116.616V22.475L100.275 22.475V40.2988Z" fill="#E0E0E0"/>
<path d="M99.2969 40.2988H116.063V22.475L99.2969 22.475V40.2988Z" fill="#F5F5F5"/>
<path d="M114.659 38.8953V23.8809L100.702 23.8809V38.8953H114.659Z" fill="white"/>
<path d="M107.68 27.5923L111.498 34.2037H103.863L107.68 27.5923Z" fill="#F5F5F5"/>
<path d="M77.3499 50.7012H93.6914V32.8774H77.3499V50.7012Z" fill="#E0E0E0"/>
<path d="M76.3721 50.7012H93.1387V32.8774H76.3721V50.7012Z" fill="#F5F5F5"/>
<path d="M91.7344 49.2991V34.2847H77.7771V49.2991H91.7344Z" fill="white"/>
<path d="M83.0469 44.4672L81.3913 41.5994C80.632 40.2846 81.581 38.6411 83.0992 38.6411H86.4107C87.9289 38.6411 88.8779 40.2846 88.1187 41.5994L86.463 44.4672C85.7038 45.7823 83.8061 45.7823 83.0469 44.4672Z" fill="#F5F5F5"/>
<path d="M67.095 110C95.8334 110 119.13 108.64 119.13 106.962C119.13 105.283 95.8334 103.923 67.095 103.923C38.3566 103.923 15.0596 105.283 15.0596 106.962C15.0596 108.64 38.3566 110 67.095 110Z" fill="#F5F5F5"/>
<path d="M84.9398 21.9023H23.0742L27.1468 106.156H89.0127L84.9398 21.9023Z" fill="#00A89F"/>
<path opacity="0.2" d="M84.9398 21.9023H23.0742L27.1468 106.156H89.0127L84.9398 21.9023Z" fill="black"/>
<path d="M85.5121 21.9023H23.6465L27.7191 106.156H89.5847L85.5121 21.9023Z" fill="#00A89F"/>
<path opacity="0.2" d="M82.2452 24.7363H26.4756L30.3722 102.348L78.8672 102.284L86.926 95.1386L82.2452 24.7363Z" fill="black"/>
<path d="M82.6738 24.7361C83.2557 47.8678 85.1265 71.0599 88.2819 94.2058C83.8628 97.2457 79.4657 100.284 75.0911 103.323C61.1918 103.323 47.2928 103.323 33.3933 103.323C29.442 77.153 27.1342 50.9058 26.4756 24.7358C45.2083 24.7361 63.9411 24.7361 82.6738 24.7361Z" fill="white"/>
<path d="M88.2816 94.2042C83.8625 97.2441 79.4654 100.283 75.0908 103.321C76.0479 99.2964 77.0438 95.2697 78.0789 91.2422C81.4777 92.2298 84.8785 93.2172 88.2816 94.2042Z" fill="#EBEBEB"/>
<path d="M41.601 31.8358C41.7049 34.6779 41.8281 37.5205 41.9709 40.364C39.1279 40.364 36.2853 40.364 33.4426 40.364C33.2998 37.5205 33.1764 34.6782 33.0728 31.8358C35.9155 31.8358 38.7581 31.8358 41.601 31.8358ZM42.4695 30.9365C39.0262 30.9365 35.5829 30.9365 32.1396 30.9365C32.2604 34.3776 32.4096 37.82 32.5873 41.2633C36.0306 41.2633 39.4739 41.2633 42.9172 41.2633C42.7398 37.8203 42.5905 34.3782 42.4695 30.9365Z" fill="#00A89F"/>
<path d="M76.4378 35.0343C66.7024 35.0343 56.967 35.0343 47.2316 35.0343C47.2048 34.3919 47.179 33.7499 47.1543 33.1074C56.8897 33.1074 66.6251 33.1074 76.3605 33.1074C76.3852 33.7499 76.4109 34.3919 76.4378 35.0343Z" fill="#E0E0E0"/>
<path d="M70.2674 39.0866C62.6492 39.0866 55.0313 39.0866 47.4132 39.0866C47.382 38.4442 47.3522 37.8017 47.3232 37.1592C54.9411 37.1592 62.5593 37.1592 70.1775 37.1592C70.2065 37.8017 70.2365 38.4442 70.2674 39.0866Z" fill="#E0E0E0"/>
<path d="M42.4342 48.5395C42.614 51.3837 42.8134 54.2285 43.0322 57.073C40.1895 57.073 37.3466 57.073 34.5039 57.073C34.2852 54.2282 34.0858 51.3835 33.906 48.5395C36.7486 48.5395 39.5913 48.5395 42.4342 48.5395ZM43.2788 47.6396C39.8358 47.6396 36.3922 47.6396 32.9492 47.6396C33.162 51.0834 33.4036 54.5283 33.6733 57.9731C37.1163 57.9731 40.5599 57.9731 44.0029 57.9731C43.7332 54.5283 43.4916 51.0834 43.2788 47.6396Z" fill="#00A89F"/>
<path d="M58.8808 51.7401C55.3041 51.7401 51.728 51.7401 48.1513 51.7401C48.1075 51.0973 48.0643 50.4545 48.0225 49.8115C51.5991 49.8115 55.1753 49.8115 58.7519 49.8115C58.7938 50.4545 58.8367 51.0973 58.8808 51.7401Z" fill="#E0E0E0"/>
<path d="M69.0435 51.7401C66.4128 51.7401 63.7819 51.7401 61.1513 51.7401C61.1073 51.0973 61.0643 50.4545 61.0225 49.8115C63.6534 49.8115 66.284 49.8115 68.9149 49.8115C68.9565 50.4545 68.9997 51.0973 69.0435 51.7401Z" fill="#E0E0E0"/>
<path d="M73.9998 55.7947C65.4807 55.7947 56.9616 55.7947 48.4422 55.7947C48.3942 55.152 48.3469 54.5092 48.3008 53.8662C56.8199 53.8662 65.3393 53.8662 73.8584 53.8662C73.9045 54.509 73.952 55.1517 73.9998 55.7947Z" fill="#E0E0E0"/>
<path d="M43.7148 65.2507C43.9708 68.0955 44.2462 70.9405 44.5406 73.785C41.6976 73.785 38.855 73.785 36.0123 73.785C35.7177 70.9402 35.4423 68.0957 35.1865 65.2507C38.0292 65.2507 40.8718 65.2507 43.7148 65.2507ZM44.5349 64.3506C41.0916 64.3506 37.6484 64.3506 34.2051 64.3506C34.51 67.7954 34.8433 71.2403 35.2051 74.6849C38.6483 74.6849 42.0916 74.6849 45.5349 74.6849C45.1734 71.2403 44.8401 67.7957 44.5349 64.3506Z" fill="#00A89F"/>
<path d="M78.9288 70.582C69.1935 70.582 59.4581 70.582 49.7227 70.582C49.786 71.2251 49.8504 71.8678 49.9156 72.5106C59.651 72.5106 69.3864 72.5106 79.1218 72.5106C79.0566 71.8678 78.9922 71.2248 78.9288 70.582Z" fill="#E0E0E0"/>
<path d="M72.1909 66.5269C64.5727 66.5269 56.9548 66.5269 49.3369 66.5269C49.396 67.1696 49.4561 67.8126 49.5173 68.4554C57.1352 68.4554 64.7533 68.4554 72.3715 68.4554C72.31 67.8126 72.2502 67.1699 72.1909 66.5269Z" fill="#E0E0E0"/>
<path d="M45.4418 81.9604C45.7738 84.8044 46.1248 87.6478 46.4954 90.4909C43.6528 90.4909 40.8099 90.4909 37.9672 90.4909C37.5966 87.6478 37.2453 84.8041 36.9135 81.9604C39.7565 81.9604 42.5991 81.9604 45.4418 81.9604ZM46.2381 81.0605C42.7948 81.0605 39.3515 81.0605 35.9082 81.0605C36.3051 84.5046 36.7305 87.9478 37.1841 91.3905C40.6274 91.3905 44.0706 91.3905 47.5139 91.3905C47.0604 87.9481 46.635 84.5046 46.2381 81.0605Z" fill="#00A89F"/>
<path d="M80.5357 85.1653C70.8003 85.1653 61.0649 85.1653 51.3295 85.1653C51.2512 84.5228 51.1739 83.8803 51.0977 83.2373C60.8331 83.2373 70.5684 83.2373 80.3038 83.2373C80.3801 83.8798 80.4574 84.5225 80.5357 85.1653Z" fill="#E0E0E0"/>
<path d="M65.1302 89.2178C60.6985 89.2178 56.2665 89.2178 51.835 89.2178C51.7527 88.5756 51.6713 87.9325 51.5908 87.29C56.0225 87.29 60.4543 87.29 64.886 87.29C64.9662 87.9325 65.0478 88.5753 65.1302 89.2178Z" fill="#E0E0E0"/>
<path d="M73.0713 89.2178C71.1578 89.2178 69.244 89.2178 67.3302 89.2178C67.2478 88.5756 67.1662 87.9325 67.0859 87.29C68.9997 87.29 70.9133 87.29 72.8271 87.29C72.9076 87.9325 72.9889 88.5753 73.0713 89.2178Z" fill="#E0E0E0"/>
<path d="M37.8315 39.1457C37.7054 38.9447 37.5793 38.7442 37.4534 38.5432C36.6284 37.2293 34.9411 36.0549 34.3604 35.713C34.5042 35.4564 34.6486 35.1996 34.7927 34.943C35.4795 35.3477 36.8764 36.3485 37.8171 37.5382C39.1157 35.768 41.0352 33.942 43.6655 31.9756C43.851 32.2177 44.0367 32.46 44.2222 32.7023C41.4139 34.8029 39.4491 36.7285 38.21 38.5795C38.0838 38.7681 37.9574 38.9568 37.8315 39.1457Z" fill="#00A89F"/>
<path d="M38.8618 55.8534C38.73 55.6524 38.5988 55.4517 38.4676 55.2507C37.6082 53.9356 35.889 52.7604 35.2988 52.4188C35.436 52.1619 35.5731 51.9051 35.7105 51.6483C36.4091 52.0538 37.832 53.0551 38.8044 54.2451C40.0556 52.4735 41.9264 50.6478 44.5039 48.6787C44.6961 48.9211 44.888 49.1637 45.0801 49.4063C42.3287 51.5106 40.4138 53.434 39.2252 55.2872C39.1039 55.4758 38.9826 55.6642 38.8618 55.8534Z" fill="#00A89F"/>
<path d="M40.3406 72.6069C40.204 72.4062 40.0668 72.2052 39.9302 72.0042C39.0357 70.6894 37.2846 69.5145 36.6855 69.172C36.8157 68.9152 36.9461 68.6581 37.0768 68.4013C37.7859 68.8073 39.2357 69.8083 40.2402 70.9983C41.4447 69.227 43.2659 67.4005 45.7905 65.4312C45.9889 65.6738 46.1875 65.9164 46.3863 66.1587C43.691 68.2628 41.8279 70.1875 40.6889 72.0401C40.5727 72.2291 40.4568 72.4183 40.3406 72.6069Z" fill="#00A89F"/>
<path d="M67.3964 98.7009C65.8129 98.7 64.9002 98.1155 64.0956 97.6002C63.3262 97.1062 62.5997 96.6416 61.2623 96.6408C59.9245 96.6408 59.3292 97.1067 58.6996 97.6002C58.0415 98.1158 57.2955 98.7019 55.7128 98.7009C54.1305 98.7 53.2161 98.1155 52.4126 97.6002C51.6429 97.1062 50.9177 96.6416 49.5796 96.6408C48.2417 96.6408 47.6465 97.1067 47.0174 97.6002C46.3593 98.1158 45.6138 98.7019 44.0312 98.7009C42.448 98.7 41.5355 98.1155 40.7309 97.6002C39.9612 97.1062 39.2353 96.6416 37.8979 96.6408C37.8617 96.3832 37.826 96.1258 37.79 95.8682C39.3727 95.869 40.2835 96.4524 41.0873 96.969C41.856 97.4615 42.583 97.929 43.9206 97.9282C45.2579 97.9287 45.8521 97.4615 46.4825 96.969C47.1411 96.4532 47.8883 95.8684 49.4717 95.8682C51.0543 95.869 51.9641 96.4524 52.7693 96.969C53.5374 97.4615 54.2655 97.929 55.6025 97.9282C56.9404 97.9287 57.5343 97.4615 58.165 96.969C58.8233 96.4532 59.5716 95.8684 61.1547 95.8682C62.7376 95.869 63.6479 96.4524 64.4525 96.969C65.2209 97.4615 65.9482 97.929 67.2863 97.9282C67.3226 98.1858 67.3596 98.4429 67.3964 98.7009Z" fill="#EBEBEB"/>
<path d="M69.6668 23.9862C68.7616 21.581 66.6653 19.9863 64.4091 19.9863H59.816C59.1306 19.9863 58.4889 19.5671 58.2184 18.9249C57.5721 17.3912 56.0426 16.2983 54.3092 16.2983C52.5757 16.2983 51.152 17.3912 50.6539 18.9249C50.4454 19.5671 49.8442 19.9863 49.1588 19.9863H44.5657C42.3092 19.9863 40.3672 21.581 39.6944 23.9862L39.4258 24.947H54.7273H70.0289L69.6668 23.9862Z" fill="#263238"/>
<path d="M69.8317 25.8915H39.7125C39.1937 25.8915 38.7487 25.4672 38.7238 24.9484C38.6988 24.4297 39.1027 24.0054 39.6212 24.0054H69.7404C70.2592 24.0054 70.7042 24.4297 70.7291 24.9484C70.7543 25.4672 70.3504 25.8915 69.8317 25.8915Z" fill="#00A89F"/>
<path opacity="0.2" d="M69.8317 25.8915H39.7125C39.1937 25.8915 38.7487 25.4672 38.7238 24.9484C38.6988 24.4297 39.1027 24.0054 39.6212 24.0054H69.7404C70.2592 24.0054 70.7042 24.4297 70.7291 24.9484C70.7543 25.4672 70.3504 25.8915 69.8317 25.8915Z" fill="black"/>
<path d="M96.8622 105.346H94.8961L94.7002 100.792H96.6666L96.8622 105.346Z" fill="#FFC3BD"/>
<path d="M108.667 105.346H106.701L105.713 100.792H107.679L108.667 105.346Z" fill="#FFC3BD"/>
<path d="M106.562 105.119H108.771C108.851 105.119 108.921 105.174 108.938 105.253L109.326 107.001C109.367 107.182 109.224 107.354 109.038 107.35C108.267 107.337 107.892 107.292 106.921 107.292C106.323 107.292 105.092 107.354 104.267 107.354C103.459 107.354 103.333 106.538 103.671 106.464C105.186 106.133 105.757 105.676 106.242 105.239C106.33 105.161 106.444 105.119 106.562 105.119Z" fill="#263238"/>
<path d="M94.9086 105.119H97.0558C97.1364 105.119 97.2059 105.174 97.2233 105.253L97.6116 107C97.6519 107.182 97.5142 107.353 97.3288 107.35C96.5542 107.337 95.4348 107.292 94.4612 107.292C93.3227 107.292 92.3396 107.354 91.0045 107.354C90.1972 107.354 89.9731 106.538 90.311 106.464C91.8493 106.127 93.1053 106.091 94.4346 105.272C94.5793 105.183 94.7389 105.119 94.9086 105.119Z" fill="#263238"/>
<path d="M98.7513 33.6113C98.4692 35.0498 98.3291 36.8326 99.3355 37.7926C99.3355 37.7926 98.7575 39.2517 96.0844 39.2517C93.6419 39.2517 94.8646 37.7926 94.8646 37.7926C96.4687 37.4096 96.385 35.4258 96.1056 34.308L98.7513 33.6113Z" fill="#FFC3BD"/>
<path d="M94.1074 37.9917C94.1632 37.6339 94.7896 37.2201 95.5051 37.0636C96.2209 36.9072 98.9605 36.5604 99.7992 36.9072C100.638 37.2539 99.6537 38.2802 99.6537 38.2802L94.1074 37.9917Z" fill="#00A89F"/>
<path opacity="0.4" d="M94.1074 37.9917C94.1632 37.6339 94.7896 37.2201 95.5051 37.0636C96.2209 36.9072 98.9605 36.5604 99.7992 36.9072C100.638 37.2539 99.6537 38.2802 99.6537 38.2802L94.1074 37.9917Z" fill="white"/>
<path opacity="0.2" d="M94.7002 100.797L94.8006 103.145H96.7678L96.6671 100.797H94.7002Z" fill="black"/>
<path opacity="0.2" d="M107.68 100.797H105.713L106.223 103.145H108.191L107.68 100.797Z" fill="black"/>
<path d="M103.419 39.5601L101.05 41.1486C101.05 41.1486 104.453 47.1993 104.167 48.169C103.778 49.4886 103.236 52.3757 102.498 53.8402C102.594 54.1558 103.085 54.878 103.359 55.0034C105.233 53.574 107.137 49.0946 107.065 47.8456C106.902 44.9979 103.419 39.5601 103.419 39.5601Z" fill="#FFC3BD"/>
<path d="M102.498 53.8432L100.628 53.6982L101.612 55.7679C101.612 55.7679 103.252 55.8404 103.526 54.5874L102.498 53.8432Z" fill="#B55B52"/>
<path d="M99.1084 54.6408L100.091 56.4716L101.613 55.7679L100.629 53.6982L99.1084 54.6408Z" fill="#B55B52"/>
<path d="M102.857 38.2367C104.717 38.5072 106.848 44.9539 106.848 44.9539L102.941 47.1607C102.941 47.1607 101.22 44.0945 100.371 41.8179C99.4818 39.4323 100.861 37.9466 102.857 38.2367Z" fill="#263238"/>
<path opacity="0.2" d="M101.774 40.4433C100.929 39.6704 101.447 42.9795 101.849 45.0969C102.056 45.5102 102.252 45.8859 102.418 46.1999C103.36 44.536 102.939 41.5085 101.774 40.4433Z" fill="black"/>
<path d="M91.8402 38.3375C91.8402 38.3375 89.5196 44.2753 91.7238 55.3331C94.8928 55.3331 100.699 55.3331 102.241 55.3331C102.313 53.7185 101.299 45.8431 102.856 38.2363C102.856 38.2363 101.053 37.8745 99.3355 37.7916C97.9917 37.7269 96.046 37.684 94.8646 37.7919C93.3072 37.9339 91.8402 38.3375 91.8402 38.3375Z" fill="#263238"/>
<path d="M93.4601 41.0953L90.808 40.0449C90.808 40.0449 87.755 46.2795 86.7942 46.5943C85.4869 47.0227 82.801 48.2132 81.1768 48.4364C80.9712 48.6944 80.655 49.5083 80.7068 49.8049C82.9467 50.5375 87.716 49.5647 88.7039 48.7974C90.9567 47.0479 93.4601 41.0953 93.4601 41.0953Z" fill="#FFC3BD"/>
<path opacity="0.2" d="M93.7573 40.3847C93.3199 39.3757 92.4826 38.9543 91.5996 39.1019C91.2614 40.3391 90.6898 43.0578 90.7837 47.1505L91.409 47.451C91.409 47.451 94.5061 42.1101 93.7573 40.3847Z" fill="black"/>
<path d="M94.1749 39.6814C94.8375 41.4406 91.4804 46.6213 91.4804 46.6213L87.5479 44.4856C87.5479 44.4856 88.4646 41.9014 89.8202 39.8824C91.212 37.809 93.4476 37.7507 94.1749 39.6814Z" fill="#263238"/>
<path d="M81.2633 48.4312L78.9209 48.9378L80.1079 51.1036C80.1079 51.1036 80.8293 50.8089 81.865 49.8219L81.2633 48.4312Z" fill="#FFC3BD"/>
<path d="M77.8174 49.4164L78.7516 50.7095L80.1083 51.1018L78.9212 48.936L77.8174 49.4164Z" fill="#FFC3BD"/>
<path d="M94.3042 31.5465C94.3133 31.3881 94.2369 31.255 94.1334 31.249C94.03 31.243 93.9388 31.3665 93.9296 31.5249C93.9205 31.6832 93.9969 31.8164 94.1004 31.8223C94.2038 31.8283 94.295 31.7048 94.3042 31.5465Z" fill="#263238"/>
<path d="M94.4418 31.5508C94.4418 31.5508 94.029 32.4434 93.6074 32.8613C93.8726 33.1387 94.3557 33.0467 94.3557 33.0467L94.4418 31.5508Z" fill="#ED847E"/>
<path d="M94.1003 30.9917C94.0869 30.9901 94.0732 30.9855 94.0611 30.9775C94.0179 30.9495 94.0056 30.8921 94.0335 30.8486C94.3129 30.4157 94.7428 30.409 94.7608 30.4088C94.811 30.4066 94.8539 30.4498 94.8545 30.5016C94.8547 30.5529 94.8134 30.5947 94.7624 30.5953C94.7482 30.5953 94.4132 30.6044 94.19 30.9498C94.1698 30.9807 94.1344 30.996 94.1003 30.9917Z" fill="#263238"/>
<path d="M99.6374 31.4026C99.4058 33.3402 99.3688 34.4862 98.3291 35.4276C96.7652 36.8438 94.4161 35.8149 94.064 33.8469C93.7471 32.0756 94.1792 29.2046 96.127 28.5403C98.0465 27.8863 99.869 29.4649 99.6374 31.4026Z" fill="#FFC3BD"/>
<path d="M95.7333 31.7798C95.0546 31.914 93.9706 30.4065 94.8544 29.1259C94.4065 28.9023 92.9451 29.7818 92.3936 28.9619C91.8418 28.1417 93.3703 27.7021 93.0796 27.0087C94.1161 27.2212 92.4087 28.5137 93.3928 28.3876C94.3769 28.2612 95.5135 26.4405 96.6246 27.1877C98.5703 28.496 101.221 26.3154 100.139 29.044C101.466 28.7756 102.372 30.3448 101.109 31.4296C98.5899 33.5916 100.139 33.8747 98.544 33.9867C97.7325 34.0433 95.874 33.0844 95.7333 31.7798Z" fill="#263238"/>
<path d="M96.7405 32.2825C96.5406 32.7022 96.1656 32.9902 95.8036 33.112C95.2591 33.2953 94.9569 32.8154 95.0833 32.2859C95.1971 31.8093 95.6173 31.1395 96.1758 31.1859C96.726 31.2315 96.9689 31.8026 96.7405 32.2825Z" fill="#FFC3BD"/>
<path d="M95.4551 55.3301C95.4551 55.3301 97.6866 70.3569 98.9118 75.9866C100.253 82.1514 105.307 102.687 105.307 102.687H108.909C108.909 102.687 105.576 82.6492 104.811 76.5453C103.98 69.9208 102.242 55.3301 102.242 55.3301H95.4551Z" fill="#00A89F"/>
<path opacity="0.2" d="M95.4551 55.3301C95.4551 55.3301 97.6866 70.3569 98.9118 75.9866C100.253 82.1514 105.307 102.687 105.307 102.687H108.909C108.909 102.687 105.576 82.6492 104.811 76.5453C103.98 69.9208 102.242 55.3301 102.242 55.3301H95.4551Z" fill="white"/>
<path opacity="0.2" d="M98.105 60.5856C97.9395 60.3502 97.7873 60.2694 97.6477 60.3097C97.6381 60.3126 97.6284 60.3161 97.619 60.3202C97.589 60.3325 97.5597 60.3491 97.531 60.3725C97.5047 60.3937 97.4792 60.4208 97.454 60.4509C97.4397 60.4678 97.4255 60.486 97.4113 60.5056C97.3917 60.5327 97.3726 60.5622 97.3536 60.5944C97.312 60.665 97.2717 60.7469 97.2331 60.8392C97.2121 60.8891 97.1915 60.9417 97.1714 60.9973C97.1472 61.0638 97.1239 61.1341 97.1008 61.2082C97.0702 61.307 97.0404 61.4116 97.0117 61.5222C97.0042 61.5507 96.9969 61.5796 96.9897 61.6089C96.9746 61.6693 96.9599 61.731 96.9454 61.7941C96.9333 61.8464 96.9215 61.8998 96.91 61.954C96.8871 62.0603 96.8651 62.1698 96.8437 62.2822C96.8209 62.4019 96.7988 62.5249 96.7774 62.6507C96.7699 62.6947 96.7626 62.7393 96.7551 62.7838C96.7288 62.9449 96.7036 63.1094 96.6797 63.2771V63.2782C97.2755 67.0191 97.984 71.3071 98.5664 74.2992C98.5948 74.2023 98.6222 74.0996 98.6485 73.9917C98.754 73.5609 98.8439 73.047 98.9177 72.4756C99.4155 68.6186 99.1807 62.1231 98.105 60.5856Z" fill="black"/>
<path d="M91.7241 55.3301C91.7241 55.3301 91.4533 70.0316 91.6672 76.0279C91.8897 82.2649 94.0681 102.687 94.0681 102.687H97.3992C97.3992 102.687 97.5216 82.6294 97.6698 76.504C97.8313 69.8263 98.6375 55.3301 98.6375 55.3301H91.7241Z" fill="#00A89F"/>
<path opacity="0.2" d="M91.7241 55.3301C91.7241 55.3301 91.4533 70.0316 91.6672 76.0279C91.8897 82.2649 94.0681 102.687 94.0681 102.687H97.3992C97.3992 102.687 97.5216 82.6294 97.6698 76.504C97.8313 69.8263 98.6375 55.3301 98.6375 55.3301H91.7241Z" fill="white"/>
<path d="M97.6184 101.67C97.6337 101.67 97.6184 102.758 97.6184 102.758H93.7787L93.6172 101.536L97.6184 101.67Z" fill="#263238"/>
<path d="M108.909 101.749C108.924 101.749 109.088 102.755 109.088 102.755H105.13L104.779 101.6L108.909 101.749Z" fill="#263238"/>
<path d="M105.911 105.464C105.762 105.464 105.622 105.439 105.533 105.364C105.462 105.305 105.43 105.222 105.436 105.118C105.441 105.04 105.482 105.003 105.516 104.986C105.731 104.874 106.368 105.264 106.44 105.308C106.455 105.319 106.464 105.337 106.461 105.356C106.458 105.374 106.444 105.389 106.426 105.393C106.289 105.426 106.093 105.464 105.911 105.464ZM105.619 105.057C105.595 105.057 105.574 105.061 105.559 105.069C105.546 105.075 105.532 105.087 105.53 105.123C105.525 105.198 105.545 105.253 105.593 105.292C105.7 105.383 105.957 105.395 106.291 105.328C106.069 105.199 105.77 105.057 105.619 105.057Z" fill="#00A89F"/>
<path d="M106.416 105.392C106.408 105.392 106.4 105.39 106.393 105.386C106.19 105.276 105.796 104.845 105.838 104.625C105.846 104.586 105.875 104.517 105.986 104.504C106.059 104.494 106.125 104.515 106.184 104.563C106.413 104.75 106.46 105.317 106.462 105.341C106.463 105.359 106.455 105.375 106.441 105.384C106.433 105.389 106.424 105.392 106.416 105.392ZM106.019 104.595C106.012 104.595 106.005 104.595 105.998 104.596C105.937 104.603 105.932 104.631 105.93 104.643C105.905 104.772 106.156 105.098 106.358 105.252C106.335 105.086 106.272 104.755 106.126 104.635C106.092 104.608 106.057 104.595 106.019 104.595Z" fill="#00A89F"/>
<path d="M94.0913 105.464C93.8962 105.464 93.7156 105.434 93.6136 105.343C93.5487 105.286 93.5194 105.209 93.5264 105.116C93.5307 105.061 93.5573 105.018 93.6032 104.993C93.8417 104.858 94.6324 105.26 94.7218 105.306C94.7392 105.315 94.7491 105.335 94.7464 105.354C94.7438 105.374 94.729 105.39 94.7094 105.394C94.5427 105.427 94.3079 105.464 94.0913 105.464ZM93.7355 105.057C93.6992 105.057 93.6697 105.062 93.6485 105.074C93.63 105.084 93.6211 105.099 93.6193 105.124C93.6144 105.187 93.6329 105.236 93.6753 105.274C93.7964 105.381 94.1201 105.399 94.554 105.327C94.2822 105.198 93.9215 105.057 93.7355 105.057Z" fill="#00A89F"/>
<path d="M94.6993 105.392C94.6929 105.392 94.6864 105.391 94.6803 105.388C94.443 105.281 93.9728 104.856 94.0088 104.634C94.0171 104.582 94.0541 104.517 94.1822 104.504C94.2756 104.492 94.3641 104.521 94.4406 104.584C94.6907 104.789 94.7436 105.318 94.7458 105.341C94.7471 105.358 94.7399 105.374 94.7264 105.383C94.7184 105.389 94.709 105.392 94.6993 105.392ZM94.2197 104.595C94.2106 104.595 94.2012 104.596 94.1918 104.596C94.1081 104.605 94.1027 104.638 94.1008 104.649C94.0794 104.782 94.3987 105.116 94.6411 105.262C94.6159 105.107 94.5458 104.79 94.3816 104.655C94.3319 104.615 94.2788 104.595 94.2197 104.595Z" fill="#00A89F"/>
</svg>
