<svg width="144" height="120" viewBox="0 0 144 120" fill="none" xmlns="http://www.w3.org/2000/svg">
<rect width="144" height="120" rx="5" fill="#F2F3FF"/>
<path d="M139.094 97.8774H4.90527V97.9445H139.094V97.8774Z" fill="#EBEBEB"/>
<path d="M120.23 99.7026H94.0371V99.7697H120.23V99.7026Z" fill="#EBEBEB"/>
<path d="M94.9912 101.256H82.4668V101.323H94.9912V101.256Z" fill="#EBEBEB"/>
<path d="M125.649 102.194H120.498V102.261H125.649V102.194Z" fill="#EBEBEB"/>
<path d="M63.6809 101.29H38.8486V101.357H63.6809V101.29Z" fill="#EBEBEB"/>
<path d="M36.4577 101.29H31.1162V101.357H36.4577V101.29Z" fill="#EBEBEB"/>
<path d="M29.2345 100.152H20.415V100.219H29.2345V100.152Z" fill="#EBEBEB"/>
<path d="M68.5147 85.9076H16.6911C15.8465 85.9076 15.1592 85.2203 15.1592 84.3757V11.5318C15.1592 10.6873 15.8465 10 16.6911 10H68.5147C69.359 10 70.0463 10.6873 70.0463 11.5318V84.3757C70.0463 85.2203 69.359 85.9076 68.5147 85.9076ZM16.6911 10.0674C15.8833 10.0674 15.2263 10.7243 15.2263 11.5321V84.376C15.2263 85.1838 15.8833 85.8407 16.6911 85.8407H68.5147C69.3222 85.8407 69.9792 85.1838 69.9792 84.376V11.5318C69.9792 10.7243 69.3222 10.0671 68.5147 10.0671L16.6911 10.0674Z" fill="#EBEBEB"/>
<path d="M126.563 85.9076H74.7396C73.8951 85.9076 73.208 85.2203 73.208 84.3757V11.5318C73.208 10.6873 73.8953 10 74.7396 10H126.563C127.408 10 128.095 10.6873 128.095 11.5318V84.3757C128.095 85.2203 127.408 85.9076 126.563 85.9076ZM74.7396 10.0674C73.9321 10.0674 73.2751 10.7243 73.2751 11.5321V84.376C73.2751 85.1838 73.9321 85.8407 74.7396 85.8407H126.563C127.371 85.8407 128.028 85.1838 128.028 84.376V11.5318C128.028 10.7243 127.371 10.0671 126.563 10.0671L74.7396 10.0674Z" fill="#EBEBEB"/>
<path d="M109.86 95.4061H28.7996L23.9658 40.4214H105.027L109.86 95.4061Z" fill="#F0F0F0"/>
<path d="M27.3675 97.1575L28.7998 95.4061L23.9661 40.4214L22.5361 42.1999L27.3675 97.1575Z" fill="#E0E0E0"/>
<path d="M29.8713 93.3207L25.4186 42.6712C25.3717 42.1374 25.7922 41.6782 26.3282 41.6782H103.047C103.52 41.6782 103.915 42.0397 103.956 42.5112L108.409 93.1607C108.456 93.6945 108.035 94.1537 107.499 94.1537H30.7808C30.3077 94.1537 29.9129 93.7919 29.8713 93.3207Z" fill="#FAFAFA"/>
<path d="M40.1929 95.4058H27.9799L27.1162 97.8756H39.3293L40.1929 95.4058Z" fill="#E0E0E0"/>
<path d="M40.1927 95.4058H120.498L119.634 97.8756H39.3291L40.1927 95.4058Z" fill="#F5F5F5"/>
<path d="M73.2623 95.4058H88.6559L88.4903 97.023H73.0967L73.2623 95.4058Z" fill="#E0E0E0"/>
<path d="M96.5874 36.812H116.037C117.648 47.4813 110.195 56.2607 99.5254 56.2607C96.1116 56.2607 92.6213 55.3619 89.4072 53.6551L96.5874 36.812Z" fill="#E0E0E0"/>
<path d="M96.5879 36.813L106.839 21.9146C109.291 23.74 111.384 26.0201 112.973 28.5937C114.562 31.1674 115.608 33.9732 116.037 36.813H96.5879Z" fill="#EBEBEB"/>
<path d="M96.5874 36.8149L93.6494 17.3662C95.9183 17.3662 98.2296 17.7631 100.479 18.539C102.728 19.3148 104.88 20.4578 106.838 21.9161L96.5874 36.8149Z" fill="#E6E6E6"/>
<path d="M96.5875 36.8149L89.4071 53.6577C82.8728 50.188 78.1864 43.7544 77.1381 36.8149C75.5265 26.1456 82.9799 17.3662 93.6496 17.3662L96.5875 36.8149Z" fill="#F0F0F0"/>
<path d="M72.5771 71.52H89.8299C90.0577 73.0277 90.0867 74.529 89.9165 75.9851C89.7464 77.4413 89.3782 78.8403 88.8216 80.1459L72.5771 71.52Z" fill="#EBEBEB"/>
<path d="M72.5771 71.5202L73.0066 54.5303C77.1066 55.2345 81.0423 57.3245 84.1182 60.4309C87.1941 63.5373 89.2172 67.4654 89.8299 71.5204H72.5771V71.5202Z" fill="#E0E0E0"/>
<path d="M72.577 71.5231L57.2561 77.4237C56.2822 75.5325 55.6284 73.5356 55.3243 71.5231C53.8947 62.0588 60.5064 54.271 69.9711 54.271C70.9754 54.271 71.9912 54.3588 73.0067 54.5332L72.577 71.5231Z" fill="#F0F0F0"/>
<path d="M72.5785 71.52L88.8229 80.1462C86.55 85.4773 81.3408 88.7721 75.1847 88.7721C67.9487 88.7721 60.7596 84.22 57.2578 77.4206L72.5785 71.52Z" fill="white"/>
<path d="M71.9995 110C100.738 110 124.035 108.639 124.035 106.961C124.035 105.283 100.738 103.922 71.9995 103.922C43.261 103.922 19.9639 105.283 19.9639 106.961C19.9639 108.639 43.261 110 71.9995 110Z" fill="#F5F5F5"/>
<path d="M69.4726 59.4964H45.2984C43.7644 59.4964 42.4069 58.2412 42.2819 56.7072L41.0717 41.8434C40.947 40.3094 42.0999 39.0542 43.634 39.0542H67.8082C69.3422 39.0542 70.6997 40.3094 70.8245 41.8434L72.0346 56.7072C72.1599 58.2412 71.0067 59.4964 69.4726 59.4964Z" fill="white"/>
<path d="M69.4735 59.6145H45.2993C43.7022 59.6145 42.297 58.3156 42.1671 56.7188L40.957 41.855C40.8939 41.0783 41.1397 40.3465 41.6494 39.7934C42.1569 39.2429 42.8622 38.9399 43.6351 38.9399H67.8093C69.4064 38.9399 70.8114 40.2391 70.9416 41.8359L72.1517 56.6998C72.2147 57.4762 71.9689 58.208 71.4593 58.7611C70.9518 59.3115 70.2467 59.6145 69.4735 59.6145ZM43.6351 39.1726C42.9277 39.1726 42.283 39.4493 41.8203 39.9512C41.3552 40.456 41.1309 41.1253 41.1886 41.8362L42.3987 56.7C42.5192 58.179 43.8203 59.3824 45.2993 59.3824H69.4735C70.181 59.3824 70.8256 59.1057 71.2883 58.6039C71.7534 58.099 71.9778 57.4297 71.9201 56.7191L70.7099 41.8552C70.5894 40.376 69.2883 39.1726 67.8093 39.1726H43.6351Z" fill="#00A89F"/>
<path d="M62.9115 55.157C61.9636 56.1892 60.7384 56.9304 59.3582 57.3094L58.958 56.1634C61.9343 55.35 63.9493 52.5745 63.6807 49.2763C63.5204 47.3075 62.5779 45.5247 61.1829 44.2347L61.9536 43.3955C65.4431 46.6221 65.8752 51.931 62.9115 55.157Z" fill="#E0E0E0"/>
<path d="M61.955 43.395L61.1843 44.2342C59.7892 42.9441 57.9414 42.1468 55.9726 42.1468C54.0038 42.1468 52.2862 42.9463 51.1034 44.2363L50.1934 43.395C51.6262 41.8352 53.6724 40.959 55.876 40.959C58.0818 40.959 60.2686 41.8352 61.955 43.395Z" fill="#263238"/>
<path d="M59.359 57.3096C56.5553 58.0766 53.4201 57.2537 51.1504 55.1573C47.6636 51.9309 47.2316 46.6223 50.1928 43.396L51.1029 44.2373C49.9178 45.5274 49.2656 47.3077 49.4258 49.2765C49.7463 53.2116 53.1973 56.403 57.1328 56.403C57.7697 56.403 58.3835 56.3193 58.9589 56.1636L59.359 57.3096Z" fill="#00A89F"/>
<path d="M36.5437 15.0288H34.6055V15.2609H36.5437V15.0288Z" fill="#00A89F"/>
<path d="M32.7277 15.0288H28.3145V15.2609H32.7277V15.0288Z" fill="#00A89F"/>
<path d="M53.2519 36.3934H29.0777C27.5437 36.3934 26.1862 35.1382 26.0612 33.6042L24.851 18.7403C24.7262 17.2063 25.8792 15.9512 27.4133 15.9512H51.5874C53.1215 15.9512 54.4789 17.2063 54.6037 18.7403L55.8139 33.6042C55.9389 35.1382 54.786 36.3934 53.2519 36.3934Z" fill="white"/>
<path d="M53.2519 36.5049H29.0775C27.4803 36.5049 26.0751 35.2058 25.9452 33.609L24.7354 18.7451C24.672 17.9687 24.9179 17.2366 25.4278 16.6838C25.9353 16.1331 26.6406 15.8301 27.4135 15.8301H51.5877C53.1848 15.8301 54.5901 17.1292 54.72 18.726L55.9301 33.5899C55.9931 34.3666 55.7473 35.0984 55.2377 35.6515C54.7302 36.202 54.0249 36.5049 53.2519 36.5049ZM27.4132 16.0625C26.7058 16.0625 26.0614 16.3392 25.5985 16.8413C25.1334 17.3458 24.909 18.0151 24.967 18.726L26.1771 33.5899C26.2976 35.0692 27.5987 36.2725 29.0777 36.2725H53.2522C53.9594 36.2725 54.604 35.9961 55.067 35.494C55.5321 34.9892 55.7564 34.3199 55.6985 33.6087L54.4883 18.7448C54.3678 17.2656 53.0665 16.0622 51.5877 16.0622L27.4132 16.0625Z" fill="#00A89F"/>
<path d="M27.0376 20.2126H39.8479L39.7448 18.9473H26.9346L27.0376 20.2126Z" fill="#E0E0E0"/>
<path d="M52.6574 20.2126H39.8472L39.7441 18.9473H52.5544L52.6574 20.2126Z" fill="#00A89F"/>
<path d="M27.3052 23.5107H30.9597L30.8567 22.2451H27.2021L27.3052 23.5107Z" fill="#E0E0E0"/>
<path d="M52.9265 23.5107H30.9605L30.8574 22.2451H52.8234L52.9265 23.5107Z" fill="#00A89F"/>
<path d="M27.5738 26.802H38.9766L38.8736 25.5366H27.4707L27.5738 26.802Z" fill="#E0E0E0"/>
<path d="M53.195 26.802H38.9771L38.874 25.5366H53.0919L53.195 26.802Z" fill="#00A89F"/>
<path d="M27.8423 30.1001H47.303L47.1999 28.8345H27.7393L27.8423 30.1001Z" fill="#E0E0E0"/>
<path d="M53.4621 30.1001H47.3023L47.1992 28.8345H53.359L53.4621 30.1001Z" fill="#00A89F"/>
<path d="M28.1099 33.3904H37.1108L37.0077 32.125H28.0068L28.1099 33.3904Z" fill="#E0E0E0"/>
<path d="M53.7305 33.3904H37.1109L37.0078 32.125H53.6274L53.7305 33.3904Z" fill="#00A89F"/>
<path d="M86.2985 36.3934H62.1243C60.5903 36.3934 59.2328 35.1382 59.108 33.6042L57.8979 18.7403C57.7731 17.2063 58.9261 15.9512 60.4601 15.9512H84.6343C86.1684 15.9512 87.5258 17.2063 87.6509 18.7403L88.861 33.6042C88.9858 35.1382 87.8326 36.3934 86.2985 36.3934Z" fill="white"/>
<path d="M86.2997 36.5049H62.1255C60.5284 36.5049 59.1232 35.2058 58.9933 33.609L57.7831 18.7451C57.7201 17.9687 57.9659 17.2366 58.4756 16.6835C58.9831 16.1331 59.6881 15.8301 60.461 15.8301H84.6355C86.2326 15.8301 87.6376 17.1292 87.7677 18.726L88.9778 33.5899C89.0412 34.3663 88.7953 35.0984 88.2854 35.6513C87.7782 36.202 87.0729 36.5049 86.2997 36.5049ZM60.461 16.0625C59.7538 16.0625 59.1092 16.3389 58.6462 16.841C58.1811 17.3458 57.9568 18.0151 58.0145 18.726L59.2246 33.5899C59.3451 35.0692 60.6465 36.2725 62.1252 36.2725H86.2994C87.0069 36.2725 87.6512 35.9958 88.1142 35.4937C88.5793 34.9892 88.8037 34.3199 88.7457 33.609L87.5356 18.7451C87.4151 17.2659 86.114 16.0625 84.6349 16.0625H60.461Z" fill="#00A89F"/>
<path d="M74.1809 33.3901H73.7542L72.5781 18.9473H73.0048L74.1809 33.3901Z" fill="#E0E0E0"/>
<path d="M74.8257 27.393H72.1333L71.6738 21.75H74.3662L74.8257 27.393Z" fill="#00A89F"/>
<path d="M68.8828 33.3901H68.456L67.2803 18.9473H67.707L68.8828 33.3901Z" fill="#E0E0E0"/>
<path d="M69.6294 28.647H66.937L66.5342 23.7007H69.2266L69.6294 28.647Z" fill="#00A89F"/>
<path d="M63.5839 33.3901H63.1572L61.9814 18.9473H62.4079L63.5839 33.3901Z" fill="#E0E0E0"/>
<path d="M63.9991 24.5751H61.3067L61.0303 21.1792H63.7226L63.9991 24.5751Z" fill="#263238"/>
<path d="M79.4804 33.3901H79.0537L77.8779 18.9473H78.3047L79.4804 33.3901Z" fill="#E0E0E0"/>
<path d="M80.3851 30.5962H77.6927L76.9727 21.75H79.6648L80.3851 30.5962Z" fill="#263238"/>
<path d="M84.7783 33.3901H84.3515L83.1758 18.9473H83.6025L84.7783 33.3901Z" fill="#E0E0E0"/>
<path d="M85.7711 31.6516H83.0787L82.502 24.5669H85.1943L85.7711 31.6516Z" fill="#00A89F"/>
<path d="M60.4304 82.409H36.2562C34.7221 82.409 33.3647 81.1538 33.2399 79.6198L32.0298 64.756C31.905 63.222 33.0579 61.9668 34.592 61.9668H58.7661C60.3002 61.9668 61.6577 63.222 61.7825 64.756L62.9926 79.6198C63.1176 81.1538 61.9644 82.409 60.4304 82.409Z" fill="white"/>
<path d="M60.4306 82.5271H36.2564C34.6592 82.5271 33.254 81.2282 33.1241 79.6314L31.914 64.7676C31.8509 63.9912 32.0968 63.2591 32.6064 62.7059C33.1139 62.1555 33.8192 61.8525 34.5922 61.8525H58.7663C60.3635 61.8525 61.7684 63.1517 61.8986 64.7485L63.1087 79.6124C63.172 80.3885 62.9262 81.1206 62.4166 81.6737C61.909 82.2241 61.2038 82.5271 60.4306 82.5271ZM34.5922 62.0849C33.8847 62.0849 33.2401 62.3616 32.7774 62.8635C32.3123 63.3683 32.0879 64.0376 32.1456 64.7485L33.3557 79.6124C33.4762 81.0914 34.7776 82.2947 36.2564 82.2947H60.4306C61.138 82.2947 61.7826 82.018 62.2453 81.5159C62.7104 81.0114 62.9348 80.3421 62.8768 79.6314L61.6667 64.7676C61.5462 63.2883 60.2451 62.0849 58.7661 62.0849H34.5922Z" fill="#00A89F"/>
<path d="M37.8615 71.8357L43.0718 77.8552L49.0467 68.6392L52.7417 73.4016L53.6432 72.0109L59.6828 79.2494L36.4863 79.2405L37.8615 71.8357Z" fill="#00A89F"/>
<path d="M55.2546 72.2081L52.833 77.3932L45.1093 65.1304L41.4723 72.9179L40.307 71.0675L36.4863 79.2479L59.6815 79.2364L55.2546 72.2081Z" fill="#E0E0E0"/>
<path d="M104.978 37.9415C105.625 39.1548 106.181 40.3539 106.704 41.6029C107.214 42.8524 107.685 44.1218 108.054 45.4631C108.147 45.7959 108.229 46.1391 108.307 46.484C108.338 46.601 108.414 46.9745 108.413 47.2118C108.426 47.4753 108.405 47.7128 108.372 47.9399C108.227 48.8322 107.915 49.516 107.574 50.1622C106.879 51.4415 106.04 52.5016 105.065 53.5029C104.773 53.8032 104.292 53.8096 103.992 53.5171C103.747 53.2783 103.697 52.9141 103.847 52.625L103.866 52.5888C104.441 51.478 105.011 50.3061 105.396 49.194C105.581 48.643 105.728 48.0791 105.727 47.664C105.724 47.565 105.721 47.4737 105.706 47.4104C105.7 47.3774 105.694 47.3476 105.683 47.3312L105.634 47.1734C105.544 46.8844 105.452 46.5951 105.345 46.3036C104.939 45.1384 104.436 43.9683 103.914 42.8076C103.394 41.6504 102.835 40.4736 102.282 39.355L102.27 39.3322C101.898 38.5786 102.207 37.6656 102.96 37.2929C103.699 36.9274 104.593 37.2196 104.978 37.9415Z" fill="#00A89F"/>
<path d="M104.139 52.4702L102.858 52.8736L104.366 54.6386C104.366 54.6386 104.948 54.1266 105.157 53.3853C105.228 53.1352 105.125 52.8676 104.914 52.7155L104.7 52.5609C104.538 52.4436 104.33 52.4101 104.139 52.4702Z" fill="#7F3E3B"/>
<path d="M101.094 53.9625L102.709 55.2442L104.366 54.6393L102.858 52.8745L101.094 53.9625Z" fill="#7F3E3B"/>
<path d="M95.5771 28.965C95.5449 29.1239 95.4346 29.2353 95.3308 29.2144C95.2269 29.1932 95.1689 29.0474 95.2014 28.8886C95.2336 28.7297 95.3439 28.6183 95.4478 28.6392C95.5516 28.6607 95.6096 28.8064 95.5771 28.965Z" fill="#263238"/>
<path d="M95.4496 29.2368C95.4496 29.2368 94.9024 30.0795 94.415 30.4407C94.6426 30.7601 95.1445 30.7373 95.1445 30.7373L95.4496 29.2368Z" fill="#630F0F"/>
<path d="M96.3374 28.2009C96.3605 28.2009 96.3838 28.1926 96.4021 28.1757C96.4407 28.14 96.4432 28.0798 96.4072 28.0412C96.05 27.6545 95.6163 27.7232 95.5978 27.7264C95.546 27.7353 95.5111 27.7844 95.5199 27.8362C95.5288 27.888 95.5784 27.9223 95.6294 27.914C95.6436 27.9118 95.9826 27.8619 96.2676 28.1703C96.2864 28.1907 96.3119 28.2009 96.3374 28.2009Z" fill="#263238"/>
<path d="M99.9864 31.8564C99.6981 33.326 99.5245 35.3619 100.552 36.3425C100.552 36.3425 100.151 37.833 97.4199 37.833C94.4173 37.833 95.9755 36.5247 95.9755 36.5247C97.2234 36.1375 97.2127 34.7156 96.9271 33.574L99.9864 31.8564Z" fill="#7F3E3B"/>
<path d="M95.4492 36.2892C95.4492 36.2892 95.8869 35.2517 96.3343 35.0729C96.7817 34.8939 99.6295 34.4259 100.285 34.8389C100.941 35.2519 101.384 36.579 101.384 36.579L95.4492 36.2892Z" fill="#00A89F"/>
<path d="M98.4594 105.011C98.2015 105.011 97.9527 104.975 97.8692 104.859C97.84 104.819 97.8172 104.75 97.8733 104.651C97.9047 104.596 97.9554 104.559 98.0241 104.54C98.3585 104.449 99.0603 104.849 99.0901 104.866C99.1073 104.876 99.1167 104.896 99.1134 104.915C99.1102 104.935 99.0952 104.95 99.0759 104.954C98.9476 104.98 98.6996 105.011 98.4594 105.011ZM98.1408 104.621C98.1073 104.621 98.0764 104.624 98.0488 104.632C98.0048 104.644 97.9744 104.666 97.9557 104.698C97.9221 104.757 97.9342 104.787 97.9465 104.804C98.0399 104.934 98.5477 104.936 98.9213 104.884C98.735 104.788 98.3757 104.621 98.1408 104.621Z" fill="#00A89F"/>
<path d="M99.066 104.954C99.0593 104.954 99.0528 104.952 99.0464 104.949C98.8038 104.841 98.3236 104.406 98.3604 104.179C98.369 104.126 98.4068 104.059 98.5375 104.046C98.6352 104.036 98.7235 104.064 98.8013 104.127C99.0568 104.337 99.111 104.878 99.1132 104.901C99.1148 104.918 99.1073 104.935 99.0936 104.945C99.0856 104.951 99.0759 104.954 99.066 104.954ZM98.5759 104.139C98.5665 104.139 98.5568 104.14 98.5475 104.141C98.4618 104.149 98.4565 104.183 98.4546 104.194C98.4326 104.33 98.7589 104.672 99.0064 104.82C98.9806 104.662 98.909 104.339 98.7412 104.201C98.6908 104.159 98.6363 104.139 98.5759 104.139Z" fill="#00A89F"/>
<path d="M101.275 104.903H99.2666L99.0664 100.251H101.075L101.275 104.903Z" fill="#7F3E3B"/>
<path d="M99.2787 104.675H101.472C101.555 104.675 101.626 104.732 101.643 104.812L102.04 106.598C102.081 106.783 101.941 106.958 101.751 106.955C100.96 106.942 99.8165 106.895 98.8219 106.895C97.659 106.895 97.5181 106.959 96.1545 106.959C95.3298 106.959 95.1008 106.125 95.4462 106.049C97.0176 105.706 97.4371 105.669 98.7951 104.831C98.9424 104.741 99.1053 104.675 99.2787 104.675Z" fill="#263238"/>
<path d="M104.15 36.3431C106.033 36.7747 107.275 41.8554 107.275 41.8554L104.132 44.2168C104.132 44.2168 102.417 43.1543 101.799 40.7503C101.152 38.2311 102.225 35.9019 104.15 36.3431Z" fill="#263238"/>
<path opacity="0.2" d="M102.536 39.8809C103.559 40.8926 104.22 42.4897 104.299 44.0918L104.132 44.2204C104.132 44.2204 102.416 43.1563 101.798 40.7531C101.759 40.6028 101.727 40.4522 101.699 40.3046L102.536 39.8809Z" fill="black"/>
<path d="M110.918 43.905L95.667 49.9995L100.2 61.3412L115.45 55.2467L110.918 43.905Z" fill="#00A89F"/>
<path opacity="0.5" d="M110.694 43.9945L95.667 49.9995L100.2 61.3412L115.226 55.3362L110.694 43.9945Z" fill="white"/>
<g opacity="0.5">
<path d="M98.4198 50.0662L96.9971 50.6348L97.4 51.6431L98.8228 51.0745L98.4198 50.0662Z" fill="#00A89F"/>
<path d="M100.769 49.1272L99.3467 49.6958L99.7496 50.7041L101.172 50.1355L100.769 49.1272Z" fill="#00A89F"/>
<path d="M103.118 48.1897L101.695 48.7583L102.098 49.7666L103.521 49.198L103.118 48.1897Z" fill="#00A89F"/>
<path d="M105.468 47.2527L104.045 47.8213L104.448 48.8296L105.871 48.261L105.468 47.2527Z" fill="#00A89F"/>
<path d="M107.816 46.3108L106.394 46.8794L106.797 47.8877L108.219 47.3191L107.816 46.3108Z" fill="#00A89F"/>
<path d="M110.165 45.3733L108.742 45.9419L109.145 46.9502L110.568 46.3816L110.165 45.3733Z" fill="#00A89F"/>
<path d="M99.0859 51.7298L97.6631 52.2983L98.0661 53.3069L99.4889 52.7383L99.0859 51.7298Z" fill="#00A89F"/>
<path d="M101.434 50.7913L100.012 51.3599L100.415 52.3684L101.838 51.7998L101.434 50.7913Z" fill="#00A89F"/>
<path d="M103.784 49.8543L102.361 50.4229L102.764 51.4314L104.187 50.8628L103.784 49.8543Z" fill="#00A89F"/>
<path d="M106.133 48.9168L104.71 49.4854L105.113 50.4936L106.536 49.9251L106.133 48.9168Z" fill="#00A89F"/>
<path d="M108.481 47.9754L107.059 48.5439L107.462 49.5525L108.884 48.9839L108.481 47.9754Z" fill="#00A89F"/>
<path d="M110.831 47.0374L109.408 47.606L109.811 48.6142L111.234 48.0457L110.831 47.0374Z" fill="#00A89F"/>
<path d="M99.7509 53.3958L98.3281 53.9644L98.7311 54.9726L100.154 54.4041L99.7509 53.3958Z" fill="#00A89F"/>
<path d="M102.101 52.4554L100.678 53.0239L101.081 54.0322L102.503 53.4637L102.101 52.4554Z" fill="#00A89F"/>
<path d="M104.449 51.5183L103.026 52.0869L103.429 53.0952L104.852 52.5266L104.449 51.5183Z" fill="#00A89F"/>
<path d="M106.799 50.5813L105.376 51.1499L105.779 52.1582L107.202 51.5896L106.799 50.5813Z" fill="#00A89F"/>
<path d="M109.147 49.6453L107.725 50.2139L108.128 51.2222L109.55 50.6536L109.147 49.6453Z" fill="#00A89F"/>
<path d="M111.496 48.7039L110.073 49.2725L110.476 50.281L111.899 49.7124L111.496 48.7039Z" fill="#00A89F"/>
<path d="M100.416 55.0642L98.9932 55.6328L99.3962 56.6414L100.819 56.0728L100.416 55.0642Z" fill="#00A89F"/>
<path d="M102.766 54.1219L101.343 54.6904L101.746 55.699L103.169 55.1304L102.766 54.1219Z" fill="#00A89F"/>
<path d="M105.114 53.1829L103.691 53.7515L104.094 54.7598L105.517 54.1912L105.114 53.1829Z" fill="#00A89F"/>
<path d="M107.464 52.2464L106.041 52.8149L106.444 53.8235L107.867 53.2549L107.464 52.2464Z" fill="#00A89F"/>
<path d="M109.812 51.3084L108.39 51.877L108.793 52.8852L110.215 52.3167L109.812 51.3084Z" fill="#00A89F"/>
<path d="M112.162 50.366L110.739 50.9346L111.142 51.9429L112.565 51.3743L112.162 50.366Z" fill="#00A89F"/>
<path d="M101.082 56.7278L99.6592 57.2964L100.062 58.3047L101.485 57.7361L101.082 56.7278Z" fill="#00A89F"/>
<path d="M103.432 55.7864L102.009 56.355L102.412 57.3633L103.835 56.7947L103.432 55.7864Z" fill="#00A89F"/>
<path d="M105.78 54.8479L104.357 55.4165L104.76 56.4248L106.183 55.8562L105.78 54.8479Z" fill="#00A89F"/>
<path d="M108.129 53.9114L106.706 54.48L107.109 55.4883L108.532 54.9197L108.129 53.9114Z" fill="#00A89F"/>
<path d="M110.477 52.9744L109.055 53.543L109.458 54.5515L110.881 53.9829L110.477 52.9744Z" fill="#00A89F"/>
<path d="M112.827 52.0315L111.404 52.6001L111.807 53.6086L113.23 53.0401L112.827 52.0315Z" fill="#00A89F"/>
<path d="M101.747 58.3938L100.324 58.9624L100.727 59.9709L102.15 59.4024L101.747 58.3938Z" fill="#00A89F"/>
<path d="M104.096 57.4515L102.673 58.02L103.076 59.0286L104.499 58.46L104.096 57.4515Z" fill="#00A89F"/>
<path d="M106.445 56.514L105.022 57.0825L105.426 58.0911L106.848 57.5225L106.445 56.514Z" fill="#00A89F"/>
<path d="M108.794 55.575L107.371 56.1436L107.774 57.1518L109.197 56.5833L108.794 55.575Z" fill="#00A89F"/>
<path d="M111.144 54.637L109.722 55.2056L110.125 56.2139L111.547 55.6453L111.144 54.637Z" fill="#00A89F"/>
<path d="M113.493 53.7L112.07 54.2686L112.473 55.2768L113.896 54.7083L113.493 53.7Z" fill="#00A89F"/>
</g>
<path d="M109.656 47.5035C109.569 47.2853 109.676 47.0376 109.894 46.9504C110.112 46.8632 110.36 46.9695 110.447 47.1877C110.534 47.4058 110.428 47.6535 110.21 47.7408C109.991 47.828 109.744 47.722 109.656 47.5035Z" fill="white"/>
<path d="M109.304 53.4415C109.217 53.2233 109.323 52.9756 109.541 52.8884C109.759 52.8012 110.007 52.9075 110.094 53.1256C110.182 53.3438 110.075 53.5915 109.857 53.6788C109.639 53.766 109.391 53.6597 109.304 53.4415Z" fill="white"/>
<path d="M103.94 53.651C103.852 53.4328 103.959 53.1851 104.177 53.0979C104.395 53.0107 104.643 53.1169 104.73 53.3351C104.817 53.5533 104.711 53.801 104.493 53.8882C104.275 53.9757 104.027 53.8694 103.94 53.651Z" fill="white"/>
<path d="M100.572 58.8619C100.485 58.6437 100.592 58.396 100.81 58.3088C101.028 58.2216 101.276 58.3279 101.363 58.546C101.45 58.7642 101.344 59.0119 101.126 59.0992C100.907 59.1864 100.66 59.0801 100.572 58.8619Z" fill="white"/>
<path d="M100.967 58.8613C100.938 58.8613 100.908 58.8532 100.882 58.8358C100.808 58.7886 100.788 58.6909 100.835 58.6176L104.202 53.4099C104.23 53.367 104.277 53.3399 104.329 53.338L109.55 53.1311L109.894 47.3397C109.899 47.253 109.976 47.1881 110.061 47.1915C110.147 47.1969 110.214 47.2715 110.209 47.3585L109.856 53.2924C109.851 53.3734 109.786 53.4373 109.705 53.4405L104.423 53.6498L101.1 58.7888C101.07 58.8358 101.019 58.8613 100.967 58.8613Z" fill="white"/>
<path d="M92.2522 38.3609C91.8416 40.531 91.5847 44.9875 92.7768 53.8125H103.521C103.327 52.282 102.559 44.118 104.15 36.3468C104.15 36.3468 102.308 35.9773 100.553 35.8927C99.1801 35.8265 97.1925 35.7827 95.9856 35.893C95.4818 35.9389 94.9872 36.0116 94.5468 36.0897C93.3847 36.295 92.4714 37.2016 92.2522 38.3609Z" fill="#263238"/>
<path opacity="0.2" d="M93.9422 41.6997L91.924 41.8607C91.8515 44.472 92.0313 48.2828 92.7774 53.8085H92.874C94.0844 49.8286 95.6893 44.1392 93.9422 41.6997Z" fill="black"/>
<path opacity="0.2" d="M99.0664 100.26L99.1692 102.657H101.179L101.076 100.26H99.0664Z" fill="black"/>
<path d="M100.942 29.7051C100.426 31.6307 100.221 32.7841 99.0331 33.5847C97.2457 34.7891 95.02 33.4067 94.9505 31.3658C94.8877 29.5288 95.7422 26.6884 97.8087 26.3003C99.8449 25.9179 101.458 27.7796 100.942 29.7051Z" fill="#7F3E3B"/>
<path d="M96.4334 29.7163L95.3896 29.9876L96.3609 27.4687C96.2557 27.2765 95.979 26.4011 96.2715 25.5257C96.3486 25.2949 96.5606 25.1387 96.8037 25.1339C98.9674 25.0917 101.228 26.3064 102.369 27.2245C102.588 27.4013 102.642 27.7129 102.495 27.9534C102.245 28.3618 101.922 28.6745 101.515 29.0888C101.494 29.7941 100.342 32.981 99.7046 33.3387C99.0672 33.6965 97.8483 33.5513 97.5241 32.9697C97.1996 32.3887 96.1035 31.6171 96.4334 29.7163Z" fill="#263238"/>
<path d="M97.3996 29.7523C97.2823 30.2611 96.9622 30.7044 96.6218 30.9725C96.1098 31.3756 95.7091 31.0037 95.7303 30.4111C95.7494 29.8779 96.0384 29.0258 96.6106 28.8524C97.1742 28.6815 97.5338 29.1704 97.3996 29.7523Z" fill="#7F3E3B"/>
<path d="M115.769 104.318C115.767 104.06 115.801 103.811 115.916 103.727C115.956 103.697 116.025 103.674 116.124 103.73C116.18 103.761 116.217 103.811 116.236 103.88C116.33 104.213 115.934 104.918 115.917 104.948C115.907 104.965 115.888 104.974 115.868 104.971C115.849 104.968 115.833 104.953 115.829 104.934C115.802 104.806 115.77 104.558 115.769 104.318ZM116.156 103.997C116.156 103.964 116.152 103.933 116.145 103.905C116.132 103.862 116.111 103.831 116.078 103.812C116.018 103.779 115.989 103.792 115.972 103.804C115.843 103.898 115.843 104.406 115.899 104.779C115.993 104.592 116.157 104.232 116.156 103.997Z" fill="#00A89F"/>
<path d="M115.827 104.92C115.827 104.913 115.828 104.907 115.831 104.9C115.939 104.657 116.37 104.174 116.597 104.209C116.651 104.218 116.717 104.255 116.731 104.386C116.742 104.483 116.715 104.572 116.651 104.65C116.443 104.907 115.902 104.965 115.879 104.967C115.863 104.969 115.846 104.961 115.836 104.948C115.83 104.939 115.827 104.929 115.827 104.92ZM116.638 104.424C116.638 104.415 116.638 104.405 116.637 104.396C116.628 104.31 116.594 104.305 116.583 104.303C116.446 104.282 116.107 104.611 115.96 104.859C116.118 104.832 116.441 104.759 116.578 104.59C116.619 104.539 116.639 104.485 116.638 104.424Z" fill="#00A89F"/>
<path d="M115.857 104.934L113.897 105.073L112.796 100.384L114.756 100.245L115.857 104.934Z" fill="#7F3E3B"/>
<path d="M115.851 104.485L113.666 104.292C113.584 104.284 113.509 104.335 113.484 104.413L112.931 106.157C112.874 106.337 112.998 106.525 113.187 106.538C113.977 106.595 115.12 106.649 116.11 106.737C117.269 106.839 116.519 106.837 117.877 106.957C118.699 107.03 119 106.219 118.663 106.114C117.128 105.633 116.85 105.301 116.32 104.684C116.206 104.552 116.024 104.5 115.851 104.485Z" fill="#263238"/>
<path opacity="0.2" d="M112.798 100.385L113.365 102.802L115.326 102.663L114.759 100.246L112.798 100.385Z" fill="black"/>
<path d="M96.5889 53.8091C96.5889 53.8091 101.21 69.2384 102.963 74.9657C104.883 81.2377 112.188 102.045 112.188 102.045L115.729 101.267C115.729 101.267 110.726 83.3892 108.651 74.6425C107.057 67.9239 103.522 53.8091 103.522 53.8091H96.5889Z" fill="#00A89F"/>
<path d="M111.565 100.954C111.549 100.956 111.913 102.337 111.913 102.337L116.174 101.88L116.154 100.614L111.565 100.954Z" fill="#263238"/>
<path opacity="0.3" d="M99.1478 60.9659C101.704 61.3029 102.723 70.213 103.106 75.4419C103.057 75.2764 103.006 75.1191 102.961 74.9707C102.005 71.8436 100.193 65.8177 98.7441 60.9943C98.8641 60.9546 99.0007 60.946 99.1478 60.9659Z" fill="black"/>
<path d="M92.7773 53.8091C92.7773 53.8091 94.3272 68.8359 94.9947 74.9533C95.689 81.3163 98.2957 102.187 98.2957 102.187H101.699C101.699 102.187 101.286 81.6972 101.149 75.4396C101 68.6179 99.84 53.8091 99.84 53.8091H92.7773Z" fill="#00A89F"/>
<path d="M97.7665 100.832C97.7507 100.832 97.9584 102.245 97.9584 102.245H102.098L102.21 100.984L97.7665 100.832Z" fill="#263238"/>
<path d="M78.2448 67.9515C80.0183 70.7646 83.7375 71.607 86.5506 69.8336C89.3638 68.06 90.2067 64.3417 88.433 61.5287C86.6593 58.7156 82.9407 57.8721 80.1275 59.6455C77.3144 61.4189 76.4714 65.1382 78.2448 67.9515ZM87.6271 62.0367C89.1198 64.4045 88.4105 67.5345 86.0426 69.0274C83.6741 70.5206 80.5438 69.8111 79.051 67.4432C77.5578 65.0746 78.2674 61.9446 80.6358 60.4514C83.0037 58.9588 86.1338 59.6681 87.6271 62.0367Z" fill="#263238"/>
<path opacity="0.2" d="M87.869 65.7654C87.3019 68.2671 84.8138 69.8354 82.3122 69.2684C79.8099 68.7013 78.2412 66.2133 78.8083 63.7115C79.3754 61.2093 81.8635 59.6406 84.3659 60.2077C86.8677 60.775 88.4364 63.2631 87.869 65.7654Z" fill="#00A89F"/>
<path d="M88.5977 60.799L89.1624 61.6946C89.248 61.8306 89.2075 62.0105 89.0714 62.0961C88.9353 62.1817 88.7555 62.1412 88.6699 62.0051L88.1055 61.1095C88.0196 60.9735 88.0604 60.7937 88.1965 60.7081C88.332 60.6222 88.5119 60.663 88.5977 60.799Z" fill="#263238"/>
<path d="M92.2508 58.2488C91.5981 58.6943 90.9508 59.1481 90.311 59.6143C89.6717 60.081 89.0378 60.5565 88.4226 61.0613C88.2847 61.1746 88.235 61.371 88.3139 61.5404C88.4076 61.7406 88.6459 61.8267 88.8461 61.7331C89.567 61.3957 90.2691 61.0289 90.9658 60.6534C91.6622 60.2772 92.3506 59.8886 93.0342 59.4919C93.6158 59.1538 94.1925 58.8081 94.7663 58.4579C94.9316 58.357 94.9821 58.1396 94.8788 57.9759L94.4137 57.2384C94.3103 57.0747 94.0927 57.0267 93.9303 57.1322C93.3672 57.4985 92.8069 57.8699 92.2508 58.2488Z" fill="#263238"/>
<path d="M95.2434 39.1132C94.9152 40.7242 94.5625 42.3296 94.1965 43.9312L93.0835 48.7229C92.7236 50.2848 92.415 51.8693 92.1326 53.4757L91.2881 58.3077L91.2862 58.3187C91.214 58.7309 90.8216 59.0066 90.4094 58.9346C90.05 58.8718 89.7945 58.5651 89.7827 58.2146C89.7248 56.5373 89.7505 54.8785 89.8445 53.209C89.9443 51.5448 90.0983 49.8654 90.3726 48.1953C90.634 46.5532 90.9282 44.9298 91.2427 43.3081C91.5562 41.6871 91.897 40.0729 92.2687 38.4656C92.4582 37.6463 93.2757 37.1358 94.095 37.325C94.9002 37.5113 95.4069 38.3078 95.2434 39.1132Z" fill="#00A89F"/>
<path d="M91.0567 57.8714C90.9209 57.7279 90.7167 57.668 90.5243 57.7139L90.0879 57.818C89.8643 57.8714 89.6968 58.0571 89.6671 58.285L89.5406 59.2538C89.5044 59.5313 89.5637 59.8131 89.7084 60.0527L90.3074 61.0441C90.4652 61.2529 90.7296 61.3514 90.9853 61.2972L91.6101 61.1646C92.0017 61.0814 92.2352 60.6778 92.112 60.2969L91.9483 59.7919C91.9483 59.7919 91.9386 58.804 91.0567 57.8714Z" fill="#7F3E3B"/>
<path d="M97.3341 38.1803C98.3107 40.7711 94.9327 44.4657 94.9327 44.4657L90.6582 43.052C90.6582 43.052 90.9854 39.517 92.4689 37.5241C94.3017 35.0624 96.5907 36.2083 97.3341 38.1803Z" fill="#263238"/>
</svg>
